<svg width="165" height="60" viewBox="0 0 165 60" fill="none" xmlns="http://www.w3.org/2000/svg">
<path d="M164.933 31.1596V18.353V10.142V1.31835C162.893 0.868992 139.205 -4.03306 115.599 8.4876V18.4347C115.578 18.3938 147.672 16.0654 164.933 31.1596Z" fill="white"/>
<path d="M164.933 43.0879V34.2438C144.714 18.0261 115.599 21.4984 115.599 21.4984V42.9041C131.064 37.0624 153.834 38.819 164.933 43.0879Z" fill="white"/>
<path d="M164.933 56.4461V46.4581V46.1517C161.648 44.865 140.735 37.5119 115.599 45.9679V60H164.933V56.4461Z" fill="white"/>
<path d="M6.25831 60H9.42079V43.7211H15.2357V42.1688H0.647461V43.6803H6.25831V60Z" fill="white"/>
<path d="M28.0688 42.1483H23.0088V42.6589C24.8451 42.6589 25.0083 44.3747 25.0083 44.3747V59.9795H28.0892V42.1483H28.0688Z" fill="white"/>
<path d="M42.2905 60H45.351H54.0019V58.4477H45.351V42.1688H40.291V42.6795C42.1273 42.6795 42.2905 44.3952 42.2905 44.3952V58.4477V60Z" fill="white"/>
<path d="M87.8297 60H90.9106H99.5615V58.4477H90.9106V42.1688H85.8506V42.6795C87.6869 42.6795 87.8501 44.3952 87.8501 44.3952V58.4477V60H87.8297Z" fill="white"/>
<path d="M70.1613 42.1688L61.8164 60H63.6935L65.0401 56.875H73.385L74.9152 60H78.5878L70.1613 42.1688ZM65.7338 55.3431L68.9779 47.847L72.6504 55.3431H65.7338Z" fill="white"/>
<path d="M2.66737 22.7853V27.0746C2.66737 27.0746 2.1981 36.0821 10.7266 36.4089C15.9294 36.6132 18.1329 33.2634 19.0307 30.6082C19.4795 29.3214 19.6836 27.9529 19.6836 26.564V19.4151V12.7974H18.8674H15.0929V13.3284C17.1332 13.3284 17.1332 15.0441 17.1332 15.0441V19.313L17.0107 26.5231C17.0107 27.9325 16.7659 29.3214 16.2354 30.6082C15.4397 32.6098 13.8279 34.8975 10.6858 34.8975C5.07494 34.8975 5.23816 27.1767 5.23816 27.1767V20.5385H4.42203H0.647461V21.0696C2.66737 21.0696 2.66737 22.7853 2.66737 22.7853Z" fill="white"/>
<path d="M24.5598 17.5769V21.8662V21.9274L24.519 30.1588H22.6828V31.4047H30.6604C30.6604 31.4047 32.5987 31.5273 33.272 29.2601C33.272 29.2601 33.8228 31.4047 37.5362 31.4047H95.7462C95.7462 31.4047 99.5616 31.466 99.5616 27.5852V27.3197V18.3122H98.6435H95.0117C95.0117 18.3122 94.9709 18.639 94.9709 18.8432C97.0112 18.8432 97.0112 20.5589 97.0112 20.5589V25.0116V25.0321V27.9325C97.0112 27.9325 97.1132 30.118 95.1545 30.118H37.577C37.577 30.118 33.6596 30.0363 33.6596 26.5435V26.5231V12.7974H32.8639H29.0893V13.3284C31.1296 13.3284 31.1092 15.0441 31.1092 15.0441V25.8899V26.7886C31.1092 26.7886 31.15 30.2405 29.1709 30.2405H27.2122V22.2134V21.9887V15.3505H26.2941H22.5195V15.8816C24.5598 15.8611 24.5598 17.5769 24.5598 17.5769Z" fill="white"/>
<path d="M94.2769 15.6976C95.0523 15.6976 95.6848 15.0644 95.6848 14.2882C95.6848 13.5121 95.0523 12.8789 94.2769 12.8789C93.5016 12.8789 92.8691 13.5121 92.8691 14.2882C92.8691 15.0644 93.5016 15.6976 94.2769 15.6976Z" fill="white"/>
<path d="M98.1744 15.6976C98.9497 15.6976 99.5822 15.0644 99.5822 14.2882C99.5822 13.5121 98.9497 12.8789 98.1744 12.8789C97.3991 12.8789 96.7666 13.5121 96.7666 14.2882C96.7666 15.0644 97.3991 15.6976 98.1744 15.6976Z" fill="white"/>
</svg>
