<svg width="76" height="77" viewBox="0 0 76 77" fill="none" xmlns="http://www.w3.org/2000/svg">
<circle cx="41" cy="37" r="19" stroke="black" stroke-width="1.5"/>
<path d="M32.917 45.0529C33.0127 45.1509 33.1375 45.2155 33.2727 45.2372C33.408 45.2588 33.5467 45.2363 33.6682 45.173L43.5102 40.0308C43.6366 40.0011 43.7508 39.9334 43.8376 39.8368C43.9337 39.7501 44.0013 39.6359 44.0312 39.5098L49.1727 29.6692C49.4622 29.1154 48.8656 28.5188 48.3117 28.8083L38.4706 33.9503C38.344 33.98 38.2297 34.0482 38.1429 34.1446C38.0468 34.2314 37.9794 34.3453 37.9496 34.4713L32.8075 44.3122C32.7452 44.4314 32.7223 44.5673 32.742 44.7003C32.7617 44.8334 32.8229 44.9568 32.917 45.0529ZM42.9419 38.8386L41.8294 37.7261C41.8294 37.7261 41.4622 37.3589 41.042 36.9387C40.6217 36.5184 40.2545 36.1512 40.2545 36.1512L39.0962 34.9928L47.1001 30.8805L42.9419 38.8386Z" fill="black"/>
<path d="M44.6162 11H42.1846L38.9033 4.95752C38.6934 4.57666 38.4175 3.98584 38.0757 3.18506C38.2271 4.2251 38.3027 5.08447 38.3027 5.76318V11H36.3838V0.995117H38.7642L42.126 7.05225C42.2432 7.26709 42.3188 7.4209 42.353 7.51367C42.3921 7.60645 42.4629 7.78223 42.5654 8.04102C42.668 8.2998 42.7729 8.56104 42.8804 8.82471C42.7583 8.12646 42.6973 7.31104 42.6973 6.37842V0.995117H44.6162V11Z" fill="black"/>
<path d="M37.4971 73.7729L37.6802 71.9785C38.4712 72.4082 39.2256 72.623 39.9434 72.623C40.4072 72.623 40.8125 72.5083 41.1592 72.2788C41.5107 72.0493 41.6865 71.7124 41.6865 71.2681C41.6865 70.8188 41.5376 70.499 41.2397 70.3086C40.9468 70.1182 40.4121 69.8569 39.6357 69.5249C38.8594 69.188 38.2759 68.8145 37.8853 68.4043C37.4995 67.9893 37.3066 67.3984 37.3066 66.6318C37.3066 65.9922 37.4678 65.46 37.79 65.0352C38.1172 64.6055 38.5469 64.2905 39.0791 64.0903C39.6162 63.8853 40.1997 63.7827 40.8296 63.7827C41.6743 63.7827 42.4702 63.9146 43.2173 64.1782L43.0488 65.8262C42.3213 65.4941 41.6304 65.3281 40.9761 65.3281C40.5464 65.3281 40.1704 65.4258 39.8481 65.6211C39.5308 65.8115 39.3721 66.1143 39.3721 66.5293C39.3721 66.9248 39.4917 67.1958 39.731 67.3423C39.9702 67.4888 40.5122 67.75 41.3569 68.126C42.2065 68.4971 42.8315 68.895 43.2319 69.3198C43.6323 69.7397 43.8325 70.3306 43.8325 71.0923C43.8325 71.6343 43.7324 72.103 43.5322 72.4985C43.332 72.894 43.0537 73.2212 42.6973 73.48C42.3457 73.7339 41.9404 73.9219 41.4814 74.0439C41.0273 74.166 40.5439 74.2271 40.0312 74.2271C39.2207 74.2271 38.376 74.0757 37.4971 73.7729Z" fill="black"/>
<path d="M74.6567 39.3667V41H68.6729V30.9951H74.5981V32.6431H70.6943V35.0601H74.2686V36.6934H70.6943V39.3667H74.6567Z" fill="black"/>
<path d="M11.9385 41H9.375L8.47412 37.2354C8.42041 36.9814 8.33984 36.6323 8.23242 36.188C8.12988 35.7437 8.02734 35.2847 7.9248 34.811C7.82227 34.3374 7.74414 33.9688 7.69043 33.7051C7.6416 33.4365 7.58789 33.0825 7.5293 32.6431H7.4707C7.40234 33.229 7.30225 33.8418 7.17041 34.4814C7.04346 35.1162 6.9043 35.7339 6.75293 36.3345L5.69824 41H3.10547L0.41748 30.9951H2.50488L3.46436 34.8184C3.93311 36.4785 4.24805 37.9336 4.40918 39.1836H4.46777C4.5459 38.71 4.64844 38.1338 4.77539 37.4551C4.90723 36.7715 5.03174 36.127 5.14893 35.5215L6.16699 30.9951H8.8623L9.8584 35.0894C10.249 36.6812 10.5225 38.0459 10.6787 39.1836H10.7373C10.8057 38.7295 10.8936 38.2241 11.001 37.6675C11.1084 37.1108 11.2329 36.5273 11.3745 35.917C11.521 35.3066 11.6455 34.811 11.748 34.4302L12.5977 30.9951H14.5825L11.9385 41Z" fill="black"/>
</svg>
