<svg width="190" height="30" viewBox="0 0 190 30" fill="none" xmlns="http://www.w3.org/2000/svg">
<path d="M65.7142 15.4638V10.3412V7.05682V3.52734C64.8981 3.3476 55.4229 1.38678 45.9804 6.39504V10.3739C45.9722 10.3575 58.8098 9.42614 65.7142 15.4638Z" fill="white"/>
<path d="M65.7142 20.2352V16.6975C57.6264 10.2105 45.9803 11.5994 45.9803 11.5994V20.1616C52.1666 17.825 61.2745 18.5276 65.7142 20.2352Z" fill="white"/>
<path d="M65.7142 25.5784V21.5832V21.4607C64.4003 20.946 56.035 18.0047 45.9803 21.3871V27H65.7142V25.5784Z" fill="white"/>
<path d="M2.24434 27H3.50933V20.4885H5.83528V19.8675H0V20.4721H2.24434V27Z" fill="white"/>
<path d="M10.9687 19.8593H8.9447V20.0636C9.67921 20.0636 9.7445 20.7499 9.7445 20.7499V26.9918H10.9768V19.8593H10.9687Z" fill="white"/>
<path d="M16.6571 27H17.8813H21.3417V26.3791H17.8813V19.8675H15.8573V20.0718C16.5918 20.0718 16.6571 20.7581 16.6571 20.7581V26.3791V27Z" fill="white"/>
<path d="M34.8729 27H36.1053H39.5657V26.3791H36.1053V19.8675H34.0813V20.0718C34.8158 20.0718 34.8811 20.7581 34.8811 20.7581V26.3791V27H34.8729Z" fill="white"/>
<path d="M27.8054 19.8675L24.4674 27H25.2182L25.7569 25.75H29.0948L29.7069 27H31.1759L27.8054 19.8675ZM26.0344 25.1372L27.332 22.1388L28.801 25.1372H26.0344Z" fill="white"/>
<path d="M0.807962 12.1141V13.8298C0.807962 13.8298 0.620254 17.4328 4.03165 17.5635C6.11277 17.6453 6.99418 16.3054 7.35327 15.2432C7.53282 14.7285 7.61444 14.1811 7.61444 13.6256V10.766V8.11893H7.28799H5.77816V8.33135C6.59428 8.33135 6.59428 9.01764 6.59428 9.01764V10.7252L6.54531 13.6092C6.54531 14.173 6.44738 14.7285 6.23518 15.2432C5.9169 16.0439 5.27216 16.959 4.01533 16.959C1.77099 16.959 1.83628 13.8707 1.83628 13.8707V11.2154H1.50983H0V11.4278C0.807962 11.4278 0.807962 12.1141 0.807962 12.1141Z" fill="white"/>
<path d="M9.56502 10.0307V11.7464V11.771L9.5487 15.0635H8.81419V15.5619H12.0052C12.0052 15.5619 12.7806 15.6109 13.0499 14.704C13.0499 14.704 13.2702 15.5619 14.7556 15.5619H38.0396C38.0396 15.5619 39.5657 15.5864 39.5657 14.0341V13.9279V10.3249H39.1985H37.7458C37.7458 10.3249 37.7295 10.4556 37.7295 10.5373C38.5456 10.5373 38.5456 11.2236 38.5456 11.2236V13.0046V13.0128V14.173C38.5456 14.173 38.5864 15.0472 37.8029 15.0472H14.7719C14.7719 15.0472 13.2049 15.0145 13.2049 13.6174V13.6092V8.11893H12.8866H11.3768V8.33135C12.1929 8.33135 12.1848 9.01764 12.1848 9.01764V13.356V13.7154C12.1848 13.7154 12.2011 15.0962 11.4095 15.0962H10.626V11.8853V11.7955V9.14019H10.2587H8.7489V9.35261C9.56502 9.34444 9.56502 10.0307 9.56502 10.0307Z" fill="white"/>
<path d="M37.4519 9.27908C37.762 9.27908 38.015 9.02581 38.015 8.71535C38.015 8.40488 37.762 8.15161 37.4519 8.15161C37.1418 8.15161 36.8888 8.40488 36.8888 8.71535C36.8888 9.02581 37.1418 9.27908 37.4519 9.27908Z" fill="white"/>
<path d="M39.0108 9.27908C39.3209 9.27908 39.5739 9.02581 39.5739 8.71535C39.5739 8.40488 39.3209 8.15161 39.0108 8.15161C38.7006 8.15161 38.4476 8.40488 38.4476 8.71535C38.4476 9.02581 38.7006 9.27908 39.0108 9.27908Z" fill="white"/>
<line x1="91.2142" y1="2.18557e-08" x2="91.2142" y2="30" stroke="white"/>
<path d="M130.145 6.37145L129.981 6.15191L129.762 5.86181L129.754 5.86965C129.598 5.68148 129.442 5.50114 129.27 5.33649C127.772 3.8311 125.774 3 123.651 3C121.263 3 119.062 4.0428 117.548 5.87749V5.85397L117.33 6.14407L117.166 6.36361C116.214 7.71218 115.714 9.29598 115.714 10.966V12.1264V12.7615V19.6455V20.359V27H131.596V20.359V19.6455V12.7615V12.1264V10.9739C131.596 9.30382 131.097 7.72003 130.145 6.37145ZM123.339 3.63509V5.50114V5.50898C123.331 5.50898 123.331 5.50898 123.324 5.50898C123.292 5.50898 123.261 5.51682 123.23 5.51682C123.152 5.52467 123.074 5.53251 123.004 5.54035C122.965 5.54819 122.925 5.54819 122.886 5.55603C122.824 5.56387 122.754 5.57171 122.691 5.58739C122.652 5.59523 122.606 5.60307 122.566 5.61091C122.504 5.62659 122.442 5.63443 122.379 5.65011C122.34 5.65795 122.293 5.67363 122.254 5.68148C122.192 5.69716 122.129 5.71284 122.067 5.73636C122.028 5.75204 121.989 5.75988 121.95 5.77556C121.888 5.79908 121.825 5.82261 121.755 5.84613C121.724 5.86181 121.685 5.86965 121.653 5.88533C121.575 5.91669 121.489 5.9559 121.411 5.98726C121.396 5.9951 121.38 6.00294 121.365 6.01078C121.271 6.05782 121.177 6.10487 121.084 6.15191C121.052 6.16759 121.029 6.18327 120.998 6.19895C120.935 6.23816 120.873 6.26952 120.811 6.30872C120.779 6.33224 120.74 6.34793 120.709 6.37145C120.654 6.41065 120.6 6.44201 120.545 6.48121C120.514 6.50474 120.475 6.52826 120.444 6.55178C120.389 6.59098 120.342 6.63019 120.288 6.66939C120.256 6.69291 120.225 6.72427 120.186 6.74779C120.139 6.787 120.085 6.83404 120.038 6.87324C120.007 6.89676 119.975 6.92813 119.944 6.95165C119.89 6.99869 119.843 7.05358 119.788 7.10062C119.765 7.12414 119.741 7.14766 119.718 7.17118C119.648 7.24175 119.577 7.32016 119.507 7.39856L119.499 7.4064C119.437 7.48481 119.374 7.56321 119.312 7.64162L117.985 6.30872C119.328 4.68572 121.248 3.72133 123.339 3.63509ZM122.886 12.7615H123.339V13.2084V15.6233L118.836 17.999V12.7615H122.886ZM118.836 12.1264V10.9739C118.836 10.8641 118.844 10.7543 118.852 10.6446C118.852 10.6054 118.859 10.574 118.859 10.5348C118.867 10.4564 118.875 10.3858 118.883 10.3153C118.891 10.2761 118.898 10.229 118.898 10.1898C118.906 10.1192 118.922 10.0565 118.937 9.98595C118.945 9.94675 118.953 9.89971 118.969 9.8605C118.984 9.79778 119 9.72721 119.023 9.66449C119.031 9.62529 119.047 9.58608 119.062 9.53904C119.086 9.46847 119.109 9.39791 119.133 9.33518C119.148 9.30382 119.156 9.26462 119.172 9.23326C119.203 9.14701 119.242 9.06076 119.281 8.97452C119.289 8.95884 119.296 8.94316 119.296 8.92747C119.343 8.83339 119.39 8.7393 119.437 8.65305L122.902 12.1343H118.836V12.1264ZM119.78 8.10421C119.788 8.09637 119.788 8.08853 119.796 8.08069C119.819 8.04933 119.835 8.02581 119.858 8.00229C119.897 7.95524 119.936 7.9082 119.975 7.86116C119.999 7.82979 120.022 7.80627 120.053 7.77491C120.092 7.73571 120.132 7.68866 120.171 7.64946C120.194 7.6181 120.225 7.59458 120.249 7.56321C120.288 7.52401 120.327 7.48481 120.366 7.4456C120.397 7.42208 120.42 7.39072 120.452 7.3672C120.491 7.328 120.537 7.28879 120.584 7.25743C120.615 7.23391 120.639 7.21039 120.67 7.18687C120.717 7.14766 120.771 7.10846 120.818 7.0771C120.842 7.06142 120.865 7.03789 120.896 7.02221C120.967 6.97517 121.037 6.92813 121.107 6.88108C121.115 6.87324 121.123 6.87324 121.13 6.8654C121.209 6.81836 121.287 6.77132 121.372 6.72427C121.396 6.70859 121.419 6.70075 121.45 6.68507C121.505 6.65371 121.568 6.62234 121.622 6.59882C121.653 6.58314 121.685 6.56746 121.716 6.55962C121.77 6.5361 121.825 6.51258 121.88 6.48906C121.911 6.47337 121.95 6.46553 121.981 6.44985C122.036 6.43417 122.09 6.41065 122.137 6.39497C122.176 6.37929 122.207 6.37145 122.247 6.36361C122.301 6.34792 122.356 6.33224 122.41 6.31656C122.449 6.30872 122.481 6.30088 122.52 6.2852C122.574 6.26952 122.637 6.26168 122.691 6.246C122.723 6.23816 122.762 6.23032 122.793 6.22248C122.863 6.2068 122.925 6.19895 122.996 6.19111C123.019 6.19111 123.043 6.18327 123.074 6.18327C123.167 6.17543 123.261 6.15975 123.347 6.15975V11.6952L119.78 8.10421ZM116.339 10.9739C116.339 9.47631 116.776 8.04933 117.611 6.8262L118.961 8.18262C118.945 8.20614 118.937 8.22966 118.922 8.24534C118.891 8.29239 118.867 8.33943 118.844 8.39431C118.813 8.45704 118.774 8.51976 118.742 8.59033C118.719 8.63737 118.696 8.69226 118.672 8.7393C118.641 8.80202 118.617 8.87259 118.586 8.93531C118.563 8.9902 118.547 9.03724 118.524 9.09212C118.5 9.16269 118.477 9.23326 118.454 9.29598C118.438 9.35086 118.422 9.39791 118.407 9.45279C118.383 9.52336 118.368 9.59392 118.352 9.66449C118.337 9.71937 118.329 9.76642 118.313 9.8213C118.297 9.89971 118.282 9.97027 118.274 10.0487C118.266 10.0957 118.258 10.1506 118.251 10.1976C118.235 10.2839 118.227 10.3701 118.219 10.4564C118.219 10.4956 118.212 10.5426 118.204 10.5818C118.196 10.7073 118.188 10.8406 118.188 10.966V12.1264H116.323V10.9739H116.339ZM116.339 12.7615H118.204V18.3283L117.931 18.4695L116.339 19.3084V12.7615ZM123.339 26.3649H116.339V20.0297L118.836 18.7125L123.019 16.5093L123.339 16.3447V26.3649ZM123.971 5.50114V3.63509C125.805 3.71349 127.522 4.46619 128.826 5.7834C128.997 5.9559 129.153 6.12839 129.309 6.31656L127.991 7.64162L127.983 7.64946C127.92 7.57105 127.858 7.49265 127.795 7.41424C127.788 7.4064 127.788 7.4064 127.78 7.39856C127.717 7.32016 127.647 7.24959 127.577 7.17903C127.554 7.1555 127.53 7.13198 127.507 7.10846C127.46 7.06142 127.405 7.00653 127.351 6.95949C127.319 6.92813 127.288 6.90461 127.257 6.88108C127.21 6.83404 127.155 6.79484 127.109 6.75563C127.077 6.73211 127.046 6.70075 127.007 6.67723C126.953 6.63803 126.906 6.59882 126.851 6.55962C126.82 6.5361 126.781 6.51258 126.75 6.48906C126.695 6.44985 126.64 6.41849 126.586 6.37929C126.555 6.35577 126.523 6.34008 126.484 6.31656C126.422 6.27736 126.359 6.23816 126.289 6.20679C126.266 6.19111 126.235 6.17543 126.211 6.15975C126.117 6.11271 126.024 6.06566 125.93 6.01862C125.915 6.01078 125.899 6.00294 125.891 6.00294C125.813 5.96374 125.727 5.93237 125.649 5.90101C125.618 5.88533 125.579 5.87749 125.548 5.86181C125.485 5.83829 125.415 5.81477 125.353 5.79124C125.314 5.77556 125.275 5.76772 125.236 5.75204C125.173 5.73636 125.111 5.71284 125.048 5.69716C125.009 5.68932 124.962 5.67364 124.923 5.6658C124.861 5.65011 124.799 5.63443 124.736 5.62659C124.697 5.61875 124.65 5.61091 124.611 5.60307C124.549 5.58739 124.479 5.57955 124.416 5.57171C124.377 5.56387 124.338 5.56387 124.299 5.55603C124.221 5.54819 124.143 5.54035 124.065 5.5325C124.034 5.5325 124.01 5.52466 123.979 5.52466C123.971 5.52466 123.971 5.52466 123.963 5.52466V5.50114H123.971ZM128.342 9.8605C128.35 9.89971 128.357 9.94675 128.373 9.98595C128.389 10.0565 128.396 10.1192 128.412 10.1898C128.42 10.229 128.428 10.2761 128.435 10.3153C128.443 10.3858 128.451 10.4642 128.459 10.5348C128.459 10.574 128.467 10.6054 128.467 10.6446C128.474 10.7543 128.482 10.8641 128.482 10.9739V12.1264H124.424L127.889 8.64521C127.936 8.7393 127.983 8.82555 128.03 8.91963C128.037 8.93532 128.045 8.951 128.045 8.95884C128.084 9.04508 128.123 9.13133 128.154 9.21757C128.17 9.24894 128.178 9.28814 128.193 9.3195C128.217 9.39007 128.24 9.45279 128.264 9.52336C128.279 9.56256 128.287 9.60176 128.295 9.64096C128.303 9.72721 128.326 9.78994 128.342 9.8605ZM123.971 6.14407C124.065 6.15191 124.159 6.15975 124.244 6.16759C124.268 6.16759 124.291 6.17543 124.315 6.17543C124.385 6.18327 124.455 6.19895 124.525 6.20679C124.557 6.21464 124.588 6.22247 124.627 6.23032C124.689 6.246 124.744 6.25384 124.806 6.26952C124.845 6.27736 124.877 6.2852 124.916 6.30088C124.97 6.31656 125.025 6.33224 125.08 6.34792C125.119 6.35576 125.15 6.37145 125.189 6.37929C125.243 6.39497 125.298 6.41849 125.353 6.43417C125.384 6.44985 125.423 6.45769 125.454 6.47337C125.509 6.4969 125.563 6.52042 125.618 6.54394C125.649 6.55962 125.68 6.5753 125.712 6.58314C125.774 6.6145 125.829 6.63803 125.883 6.66939C125.907 6.68507 125.93 6.69291 125.954 6.70859C126.032 6.75563 126.117 6.80268 126.196 6.84972C126.203 6.85756 126.211 6.85756 126.219 6.8654C126.289 6.91245 126.359 6.95949 126.43 7.00653C126.453 7.02222 126.476 7.04574 126.508 7.06142C126.555 7.10062 126.609 7.13198 126.656 7.17118C126.687 7.19471 126.711 7.21823 126.742 7.24175C126.789 7.28095 126.828 7.31232 126.875 7.35152C126.906 7.37504 126.929 7.4064 126.96 7.42992C126.999 7.46913 127.038 7.50833 127.077 7.54753C127.109 7.5789 127.132 7.60242 127.155 7.63378C127.195 7.67298 127.234 7.72002 127.273 7.75923C127.296 7.79059 127.319 7.81411 127.351 7.84547C127.39 7.89252 127.429 7.93956 127.468 7.98661C127.491 8.01013 127.507 8.04149 127.53 8.06501C127.538 8.07285 127.538 8.08069 127.546 8.08853L123.987 11.6638V6.14407H123.971ZM123.971 12.7615H128.474V17.999L123.971 15.6233V12.7615ZM130.964 26.3649H123.971V16.3368L128.474 18.7125L129.013 18.9948L129.107 19.0418L130.972 20.0219V26.3649H130.964ZM130.964 19.3084L130.168 18.8928L129.099 18.3283V12.7615H130.964V19.3084ZM130.964 12.1264H129.099V10.9739C129.099 10.8484 129.091 10.7151 129.083 10.5897C129.083 10.5505 129.075 10.5034 129.068 10.4642C129.06 10.378 129.052 10.2917 129.036 10.2055C129.029 10.1584 129.021 10.1036 129.013 10.0565C128.997 9.97811 128.99 9.90755 128.974 9.82914C128.966 9.77426 128.95 9.72721 128.935 9.67233C128.919 9.60176 128.896 9.5312 128.88 9.46063C128.865 9.40575 128.849 9.35871 128.833 9.30382C128.81 9.23326 128.787 9.16269 128.763 9.09997C128.748 9.04508 128.724 8.99804 128.701 8.94315C128.677 8.87259 128.646 8.80986 128.615 8.74714C128.591 8.69226 128.568 8.64521 128.545 8.59817C128.513 8.53545 128.482 8.47272 128.443 8.40216C128.42 8.35511 128.389 8.30023 128.365 8.25318C128.35 8.22966 128.342 8.20614 128.326 8.19046L128.334 8.18262L128.997 7.51617L129.676 6.83404C130.511 8.05717 130.948 9.48415 130.948 10.9817V12.1264H130.964Z" fill="white"/>
<path d="M136.677 12.7223H138.605V17.5443H139.502V12.7223H141.438V12.1813H136.677V12.7223Z" fill="white"/>
<path d="M142.109 12.1813V12.3538C142.757 12.3538 142.772 12.887 142.78 12.9183V17.5443H143.677V12.1813H142.109Z" fill="white"/>
<path d="M145.855 12.1813H144.286V12.3538C144.957 12.3538 144.957 12.9183 144.957 12.9183V17.5443H148.547V17.0973H145.855V12.1813Z" fill="white"/>
<path d="M149.125 17.5443H149.632L150.467 15.8507H152.512L153.331 17.5443H154.44L151.7 12.0637L149.125 17.5443ZM150.631 15.4038L151.521 13.4593L152.356 15.4038H150.631Z" fill="white"/>
<path d="M156.071 17.0973V12.1813H154.533V12.3538C154.97 12.3538 155.119 12.589 155.173 12.7615V17.5443H158.763V17.0973H156.071Z" fill="white"/>
<path d="M174.177 12.1813H175.293L177.174 16.1016H177.221L179.258 12.1813H180.155V17.5443H179.258V13.1457H179.226L176.948 17.5443L174.637 13.1849H174.575V17.5443H174.177V12.1813Z" fill="white"/>
<path d="M162.291 14.9725V17.5443H161.393V12.1813H162.291V14.5256H164.968V12.1813H165.865V17.5443H164.968V14.9725H162.291Z" fill="white"/>
<path d="M170.025 17.6697C169.611 17.6697 169.229 17.5991 168.87 17.4502C168.511 17.3012 168.199 17.0973 167.933 16.8386C167.668 16.5799 167.457 16.2819 167.309 15.9369C167.161 15.5919 167.083 15.2234 167.083 14.8314C167.083 14.5727 167.114 14.3296 167.184 14.0944C167.254 13.8592 167.348 13.6396 167.473 13.4279C167.598 13.2241 167.754 13.0359 167.933 12.8713C168.113 12.7066 168.308 12.5576 168.527 12.44C168.745 12.3224 168.979 12.2283 169.237 12.1578C169.494 12.095 169.752 12.0558 170.025 12.0558C170.298 12.0558 170.564 12.0872 170.821 12.1578C171.071 12.2205 171.313 12.3146 171.531 12.44C171.75 12.5576 171.945 12.7066 172.124 12.8713C172.304 13.0359 172.452 13.2241 172.585 13.4279C172.71 13.6318 172.811 13.8513 172.881 14.0944C172.952 14.3296 172.983 14.5805 172.983 14.8314C172.983 15.0901 172.952 15.341 172.881 15.5841C172.811 15.8272 172.718 16.0467 172.585 16.2584C172.46 16.4701 172.304 16.6583 172.124 16.8308C171.945 17.0032 171.75 17.1522 171.531 17.2777C171.313 17.4031 171.079 17.4972 170.821 17.5678C170.564 17.6305 170.298 17.6697 170.025 17.6697ZM170.025 17.4031C170.329 17.4031 170.603 17.3404 170.837 17.2149C171.071 17.0895 171.266 16.9092 171.43 16.6818C171.594 16.4544 171.711 16.18 171.797 15.8664C171.875 15.5527 171.921 15.2078 171.921 14.8392C171.921 14.4707 171.882 14.1336 171.797 13.8278C171.719 13.522 171.594 13.2555 171.43 13.0359C171.266 12.8164 171.071 12.6439 170.837 12.5184C170.603 12.393 170.329 12.3381 170.025 12.3381C169.713 12.3381 169.44 12.4008 169.206 12.5184C168.971 12.6439 168.776 12.8164 168.612 13.0359C168.456 13.2555 168.331 13.522 168.253 13.8278C168.175 14.1336 168.136 14.4707 168.136 14.8392C168.136 15.2078 168.175 15.5527 168.253 15.8664C168.331 16.18 168.456 16.4466 168.612 16.6818C168.769 16.9092 168.971 17.0895 169.206 17.2149C169.44 17.3326 169.713 17.4031 170.025 17.4031Z" fill="white"/>
<path d="M185.322 12.1813V12.6204H182.504V14.5413H184.393V14.9882H182.504V17.0973H185.322V17.5443H181.607V12.1813H185.322Z" fill="white"/>
<path d="M188.123 17.3247C188.256 17.3247 188.389 17.309 188.514 17.2698C188.646 17.2306 188.756 17.1757 188.857 17.1052C188.959 17.0346 189.044 16.9484 189.099 16.8386C189.161 16.7367 189.193 16.6112 189.193 16.4779C189.193 16.3133 189.154 16.1643 189.068 16.0389C188.982 15.9134 188.873 15.7958 188.732 15.686C188.592 15.5763 188.436 15.4822 188.264 15.3881C188.084 15.294 187.913 15.1999 187.725 15.1058C187.546 15.0117 187.366 14.9098 187.187 14.8079C187.007 14.706 186.851 14.5884 186.719 14.4629C186.578 14.3375 186.469 14.1885 186.383 14.0317C186.297 13.8749 186.258 13.6945 186.258 13.4907C186.258 13.2868 186.297 13.0986 186.375 12.9183C186.453 12.7458 186.563 12.589 186.711 12.4636C186.859 12.3381 187.039 12.2362 187.257 12.1656C187.476 12.095 187.718 12.0558 187.999 12.0558C188.248 12.0558 188.475 12.0794 188.678 12.1343C188.873 12.1891 189.052 12.2675 189.2 12.3695C189.349 12.4714 189.481 12.6047 189.583 12.7615C189.684 12.9183 189.77 13.0908 189.84 13.2947L189.38 13.5064C189.325 13.3417 189.255 13.1927 189.177 13.0516C189.091 12.9183 188.998 12.8007 188.88 12.6988C188.763 12.6047 188.631 12.5263 188.482 12.4714C188.334 12.4165 188.162 12.393 187.967 12.393C187.796 12.393 187.647 12.4165 187.523 12.4636C187.398 12.5106 187.288 12.5733 187.203 12.6517C187.117 12.7301 187.054 12.8164 187.015 12.9105C186.976 13.0046 186.953 13.1065 186.953 13.2006C186.953 13.3417 186.992 13.4671 187.078 13.5848C187.164 13.7024 187.281 13.8121 187.421 13.9141C187.562 14.016 187.725 14.1179 187.905 14.212C188.084 14.3061 188.272 14.408 188.459 14.5099C188.646 14.6119 188.834 14.7138 189.013 14.8236C189.193 14.9333 189.357 15.0509 189.497 15.1764C189.638 15.3018 189.755 15.443 189.84 15.5998C189.926 15.7488 189.973 15.9212 189.973 16.1094C189.973 16.3211 189.934 16.525 189.856 16.7131C189.778 16.9013 189.653 17.066 189.497 17.1993C189.333 17.3404 189.138 17.4502 188.896 17.5286C188.654 17.607 188.381 17.6462 188.061 17.6462C187.803 17.6462 187.577 17.6148 187.374 17.5599C187.171 17.505 186.992 17.4188 186.844 17.3169C186.687 17.2071 186.555 17.0738 186.446 16.9248C186.336 16.768 186.243 16.5955 186.172 16.3917L186.648 16.1957C186.703 16.3682 186.781 16.525 186.875 16.6661C186.968 16.8072 187.078 16.917 187.21 17.0189C187.335 17.113 187.476 17.1914 187.632 17.2385C187.78 17.3012 187.944 17.3247 188.123 17.3247Z" fill="white"/>
<path d="M158.802 20.0768C158.732 20.1552 158.693 20.2414 158.693 20.3433C158.693 20.4453 158.732 20.5394 158.802 20.6099C158.873 20.6883 158.966 20.7197 159.068 20.7197C159.177 20.7197 159.263 20.6805 159.341 20.6099C159.411 20.5394 159.45 20.4453 159.45 20.3433C159.45 20.2414 159.411 20.1552 159.341 20.0768C159.193 19.9356 158.951 19.9278 158.802 20.0768Z" fill="white"/>
<path d="M160.886 20.0533C160.816 20.1317 160.777 20.2179 160.777 20.3198C160.777 20.4296 160.816 20.5159 160.886 20.5943C160.956 20.6727 161.05 20.704 161.151 20.704C161.261 20.704 161.347 20.6648 161.425 20.5943C161.503 20.5237 161.534 20.4296 161.534 20.3198C161.534 20.2179 161.495 20.1238 161.425 20.0533C161.276 19.9043 161.034 19.9043 160.886 20.0533Z" fill="white"/>
<path d="M139.33 19.9356H138.604V24.491H139.33V19.9356Z" fill="white"/>
<path d="M142.429 21.1117C142.038 21.1117 141.718 21.2607 141.469 21.5508V21.1745H140.844V24.491H141.5V22.6798C141.5 22.3819 141.57 22.1388 141.718 21.9585C141.859 21.786 142.046 21.6998 142.28 21.6998C142.46 21.6998 142.6 21.7468 142.702 21.8409C142.803 21.935 142.85 22.0683 142.85 22.2329V24.4832H143.498V22.0291C143.498 21.7468 143.396 21.5194 143.201 21.3548C143.014 21.1901 142.756 21.1117 142.429 21.1117Z" fill="white"/>
<path d="M149.749 23.3463L147.58 19.9356H146.854V24.491H147.541V21.1117L149.663 24.4597L149.687 24.491H150.428V19.9356H149.749V23.3463Z" fill="white"/>
<path d="M154.744 23.9186C154.736 23.9186 154.721 23.9265 154.705 23.9343C154.619 23.9657 154.604 23.9657 154.604 23.9657C154.541 23.9657 154.479 23.95 154.479 23.8089V22.0448C154.479 21.4253 154.057 21.1039 153.222 21.1039C152.715 21.1039 152.34 21.2372 152.114 21.5037C151.974 21.6606 151.903 21.8958 151.888 22.1937V22.2721H152.551L152.559 22.2016C152.59 21.8723 152.793 21.7233 153.207 21.7233C153.839 21.7233 153.839 22.0212 153.839 22.1153L153.831 22.3192L152.863 22.5387C152.473 22.625 152.223 22.719 152.091 22.8131C151.864 22.9856 151.747 23.2365 151.747 23.558C151.747 23.8402 151.841 24.0676 152.013 24.2479C152.215 24.4518 152.496 24.5537 152.855 24.5537C153.3 24.5537 153.644 24.4283 153.886 24.1852C153.964 24.4204 154.159 24.5381 154.463 24.5381C154.549 24.5381 154.666 24.5145 154.814 24.4596L154.869 24.444V23.8559L154.744 23.9186ZM152.957 23.9657C152.465 23.9657 152.411 23.7305 152.411 23.558C152.411 23.4482 152.45 23.362 152.543 23.2992C152.645 23.2287 152.832 23.1581 153.113 23.0875L153.823 22.9072V23.362C153.823 23.4953 153.769 23.605 153.651 23.707C153.464 23.8794 153.238 23.9657 152.957 23.9657Z" fill="white"/>
<path d="M157.405 21.1039C157.07 21.1039 156.804 21.245 156.617 21.5273V21.1823H155.993V24.4988H156.648V22.7818C156.648 22.3662 156.75 22.0761 156.953 21.9271C157.062 21.8487 157.273 21.8017 157.577 21.8017H157.655V21.1431L157.593 21.1352C157.522 21.1117 157.46 21.1039 157.405 21.1039Z" fill="white"/>
<path d="M158.748 24.8752C158.748 25.0477 158.717 25.1182 158.685 25.1418C158.654 25.1731 158.584 25.2045 158.412 25.2045H158.217V25.769L158.272 25.7847C158.326 25.8004 158.381 25.8082 158.451 25.8082C159.232 25.8082 159.396 25.4083 159.396 25.0712V21.1744H158.74V24.8752H158.748Z" fill="white"/>
<path d="M161.464 21.1744H160.816V24.491H161.464V21.1744Z" fill="white"/>
<path d="M165.186 22.8994C165.038 22.7504 164.804 22.6406 164.468 22.5622L163.984 22.4525C163.641 22.3741 163.462 22.2486 163.462 22.0839C163.462 21.9742 163.508 21.8879 163.61 21.8252C163.719 21.7546 163.867 21.7154 164.063 21.7154C164.539 21.7154 164.609 21.9428 164.617 22.1153L164.624 22.1859H165.327V22.1075C165.327 21.8252 165.225 21.59 165.022 21.4018C164.796 21.198 164.476 21.096 164.078 21.096C163.696 21.096 163.384 21.1823 163.149 21.3626C162.915 21.5429 162.79 21.7938 162.79 22.1075C162.79 22.3819 162.884 22.6014 163.064 22.7504C163.22 22.8758 163.477 22.9856 163.852 23.0719L164.32 23.1816C164.742 23.2836 164.742 23.4717 164.742 23.5345C164.742 23.6442 164.687 23.7305 164.578 23.801C164.461 23.8794 164.289 23.9186 164.086 23.9186C163.813 23.9186 163.618 23.8638 163.524 23.7462C163.477 23.6913 163.438 23.5972 163.407 23.4639L163.391 23.4012H162.681V23.4796C162.697 23.7775 162.806 24.0206 163.009 24.2009C163.243 24.4204 163.594 24.5302 164.047 24.5302C164.461 24.5302 164.788 24.4361 165.038 24.2558C165.288 24.0676 165.42 23.8089 165.42 23.4796C165.413 23.26 165.335 23.0483 165.186 22.8994Z" fill="white"/>
</svg>
