<svg width="155" height="160" viewBox="0 0 155 160" fill="none" xmlns="http://www.w3.org/2000/svg">
<path d="M145.805 25.9663V15.2942V8.4517V1.09862C144.105 0.72416 124.365 -3.36088 104.693 7.073V15.3622C104.676 15.3282 131.421 13.3878 145.805 25.9663Z" fill="white"/>
<path d="M145.805 35.9066V28.5365C128.956 15.0218 104.693 17.9154 104.693 17.9154V35.7534C117.581 30.8854 136.556 32.3492 145.805 35.9066Z" fill="white"/>
<path d="M145.805 47.0383V38.7151V38.4598C143.068 37.3874 125.64 31.2599 104.693 38.3066V50H145.805V47.0383Z" fill="white"/>
<path d="M13.5763 50H16.2117V36.4342H21.0575V35.1406H8.90063V36.4002H13.5763V50Z" fill="white"/>
<path d="M31.752 35.1236H27.5354V35.5492C29.0656 35.5492 29.2017 36.9789 29.2017 36.9789V49.983H31.769V35.1236H31.752Z" fill="white"/>
<path d="M43.603 50H46.1534H53.3625V48.7064H46.1534V35.1406H41.9368V35.5662C43.467 35.5662 43.603 36.9959 43.603 36.9959V48.7064V50Z" fill="white"/>
<path d="M81.5526 50H84.12H91.3291V48.7064H84.12V35.1406H79.9033V35.5662C81.4336 35.5662 81.5696 36.9959 81.5696 36.9959V48.7064V50H81.5526Z" fill="white"/>
<path d="M66.8283 35.1406L59.8743 50H61.4385L62.5607 47.3958H69.5147L70.7899 50H73.8504L66.8283 35.1406ZM63.1388 46.1192L65.8422 39.8725L68.9026 46.1192H63.1388Z" fill="white"/>
<path d="M10.5839 18.9877V22.5621C10.5839 22.5621 10.1928 30.0684 17.2999 30.3407C21.6356 30.5109 23.4718 27.7195 24.22 25.5068C24.594 24.4344 24.764 23.294 24.764 22.1366V16.1792V10.6644H24.0839H20.9385V11.107C22.6387 11.107 22.6387 12.5367 22.6387 12.5367V16.0941L22.5367 22.1026C22.5367 23.277 22.3327 24.4344 21.8906 25.5068C21.2275 27.1748 19.8843 29.0812 17.2659 29.0812C12.5902 29.0812 12.7262 22.6472 12.7262 22.6472V17.1154H12.0461H8.90063V17.5579C10.5839 17.5579 10.5839 18.9877 10.5839 18.9877Z" fill="white"/>
<path d="M28.8277 14.6473V18.2218V18.2728L28.7937 25.1323H27.2635V26.1706H33.9115C33.9115 26.1706 35.5267 26.2727 36.0878 24.3834C36.0878 24.3834 36.5469 26.1706 39.6413 26.1706H88.1497C88.1497 26.1706 91.3292 26.2216 91.3292 22.9876V22.7664V15.2601H90.5641H87.5376C87.5376 15.2601 87.5036 15.5324 87.5036 15.7027C89.2039 15.7027 89.2039 17.1324 89.2039 17.1324V20.843V20.86V23.277C89.2039 23.277 89.2889 25.0983 87.6566 25.0983H39.6753C39.6753 25.0983 36.4109 25.0302 36.4109 22.1196V22.1026V10.6644H35.7477H32.6023V11.107C34.3025 11.107 34.2855 12.5367 34.2855 12.5367V21.5749V22.3238C34.2855 22.3238 34.3195 25.2004 32.6703 25.2004H31.038V18.5111V18.3239V12.7921H30.2729H27.1274V13.2346C28.8277 13.2176 28.8277 14.6473 28.8277 14.6473Z" fill="white"/>
<path d="M86.9254 13.0814C87.5715 13.0814 88.0985 12.5538 88.0985 11.907C88.0985 11.2602 87.5715 10.7325 86.9254 10.7325C86.2793 10.7325 85.7522 11.2602 85.7522 11.907C85.7522 12.5538 86.2793 13.0814 86.9254 13.0814Z" fill="white"/>
<path d="M90.1729 13.0814C90.819 13.0814 91.3461 12.5538 91.3461 11.907C91.3461 11.2602 90.819 10.7325 90.1729 10.7325C89.5268 10.7325 88.9998 11.2602 88.9998 11.907C88.9998 12.5538 89.5268 13.0814 90.1729 13.0814Z" fill="white"/>
<line opacity="0.6" y1="79.5" x2="154.706" y2="79.5" stroke="white"/>
<path d="M30.0632 117.024L29.7218 116.566L29.2665 115.962L29.2502 115.978C28.9251 115.586 28.5999 115.211 28.2422 114.868C25.1204 111.731 20.9581 110 16.5356 110C11.5603 110 6.97518 112.172 3.8209 115.995V115.946L3.36565 116.55L3.0242 117.008C1.04058 119.817 0 123.117 0 126.596V129.013V130.336V144.678V146.165V160H33.0874V146.165V144.678V130.336V129.013V126.612C33.0874 123.133 32.0468 119.833 30.0632 117.024ZM15.8852 111.323V115.211V115.227C15.8689 115.227 15.8689 115.227 15.8527 115.227C15.7876 115.227 15.7226 115.243 15.6576 115.243C15.495 115.26 15.3324 115.276 15.1861 115.292C15.1048 115.309 15.0235 115.309 14.9422 115.325C14.8121 115.341 14.6658 115.358 14.5357 115.39C14.4544 115.407 14.3568 115.423 14.2755 115.439C14.1455 115.472 14.0154 115.488 13.8853 115.521C13.804 115.537 13.7065 115.57 13.6252 115.586C13.4951 115.619 13.365 115.652 13.235 115.701C13.1537 115.733 13.0724 115.75 12.9911 115.782C12.861 115.831 12.7309 115.88 12.5846 115.929C12.5196 115.962 12.4383 115.978 12.3732 116.011C12.2106 116.076 12.0318 116.158 11.8692 116.223C11.8367 116.24 11.8042 116.256 11.7716 116.272C11.5765 116.37 11.3814 116.468 11.1863 116.566C11.1213 116.599 11.0725 116.632 11.0075 116.664C10.8774 116.746 10.7473 116.811 10.6172 116.893C10.5522 116.942 10.4709 116.975 10.4059 117.024C10.292 117.106 10.1782 117.171 10.0644 117.253C9.99939 117.302 9.91809 117.351 9.85305 117.4C9.73923 117.481 9.64168 117.563 9.52787 117.645C9.46283 117.694 9.39779 117.759 9.3165 117.808C9.21894 117.89 9.10513 117.988 9.00758 118.069C8.94254 118.118 8.8775 118.184 8.81247 118.233C8.69865 118.331 8.6011 118.445 8.48728 118.543C8.43851 118.592 8.38973 118.641 8.34095 118.69C8.19462 118.837 8.04828 119 7.90195 119.164L7.88569 119.18C7.75562 119.343 7.62554 119.507 7.49547 119.67L4.73141 116.893C7.52799 113.512 11.5277 111.503 15.8852 111.323ZM14.9422 130.336H15.8852V131.268V136.299L6.50366 141.248V130.336H14.9422ZM6.50366 129.013V126.612C6.50366 126.384 6.51993 126.155 6.53619 125.926C6.53619 125.844 6.55244 125.779 6.55244 125.697C6.5687 125.534 6.58496 125.387 6.60122 125.24C6.61748 125.158 6.63374 125.06 6.63374 124.979C6.65 124.832 6.68251 124.701 6.71503 124.554C6.73129 124.472 6.74755 124.374 6.78007 124.293C6.81259 124.162 6.84511 124.015 6.89389 123.884C6.91015 123.803 6.94267 123.721 6.97518 123.623C7.02396 123.476 7.07273 123.329 7.12151 123.198C7.15403 123.133 7.17029 123.051 7.20281 122.986C7.26784 122.806 7.34914 122.627 7.43044 122.447C7.4467 122.414 7.46296 122.382 7.46296 122.349C7.56051 122.153 7.65807 121.957 7.75562 121.777L14.9747 129.03H6.50366V129.013ZM8.47102 120.634C8.48728 120.617 8.48728 120.601 8.50354 120.585C8.55232 120.519 8.58483 120.47 8.63361 120.421C8.71491 120.323 8.7962 120.225 8.8775 120.127C8.92628 120.062 8.97505 120.013 9.04009 119.948C9.12139 119.866 9.20268 119.768 9.28398 119.686C9.33276 119.621 9.39779 119.572 9.44657 119.507C9.52787 119.425 9.60916 119.343 9.69046 119.262C9.75549 119.213 9.80428 119.147 9.86931 119.098C9.95061 119.017 10.0482 118.935 10.1457 118.87C10.2108 118.821 10.2595 118.772 10.3246 118.723C10.4221 118.641 10.5359 118.559 10.6335 118.494C10.6823 118.461 10.7311 118.412 10.7961 118.38C10.9424 118.282 11.0887 118.184 11.2351 118.086C11.2513 118.069 11.2676 118.069 11.2839 118.053C11.4465 117.955 11.609 117.857 11.7879 117.759C11.8367 117.726 11.8854 117.71 11.9505 117.677C12.0643 117.612 12.1944 117.547 12.3082 117.498C12.3732 117.465 12.4383 117.432 12.5033 117.416C12.6171 117.367 12.7309 117.318 12.8447 117.269C12.9098 117.236 12.9911 117.22 13.0561 117.187C13.1699 117.155 13.2837 117.106 13.3813 117.073C13.4626 117.04 13.5276 117.024 13.6089 117.008C13.7227 116.975 13.8365 116.942 13.9504 116.91C14.0317 116.893 14.0967 116.877 14.178 116.844C14.2918 116.811 14.4219 116.795 14.5357 116.762C14.6007 116.746 14.682 116.73 14.7471 116.713C14.8934 116.681 15.0235 116.664 15.1698 116.648C15.2186 116.648 15.2674 116.632 15.3324 116.632C15.5275 116.615 15.7226 116.583 15.9015 116.583V128.115L8.47102 120.634ZM1.30073 126.612C1.30073 123.492 2.21124 120.519 3.95097 117.971L6.76381 120.797C6.73129 120.846 6.71503 120.895 6.68251 120.928C6.61748 121.026 6.5687 121.124 6.51992 121.238C6.45488 121.369 6.37359 121.5 6.30855 121.647C6.25978 121.745 6.211 121.859 6.16223 121.957C6.09719 122.088 6.04841 122.235 5.98337 122.365C5.93459 122.48 5.90208 122.578 5.8533 122.692C5.80452 122.839 5.75574 122.986 5.70696 123.117C5.67444 123.231 5.64193 123.329 5.60941 123.443C5.56063 123.59 5.52811 123.737 5.49559 123.884C5.46308 123.999 5.44682 124.097 5.4143 124.211C5.38178 124.374 5.34926 124.521 5.333 124.685C5.31674 124.783 5.30049 124.897 5.28423 124.995C5.25171 125.175 5.23545 125.354 5.21919 125.534C5.21919 125.616 5.20294 125.714 5.18668 125.795C5.17042 126.057 5.15416 126.335 5.15416 126.596V129.013H1.26821V126.612H1.30073ZM1.30073 130.336H5.18668V141.934L4.61761 142.228L1.30073 143.976V130.336ZM15.8852 158.677H1.30073V145.479L6.50366 142.734L15.2186 138.144L15.8852 137.801V158.677ZM17.2022 115.211V111.323C21.0231 111.486 24.6001 113.055 27.3154 115.799C27.6731 116.158 27.9983 116.517 28.3235 116.91L25.5757 119.67L25.5594 119.686C25.4293 119.523 25.2993 119.36 25.1692 119.196C25.1529 119.18 25.1529 119.18 25.1367 119.164C25.0066 119 24.8603 118.853 24.7139 118.706C24.6651 118.657 24.6164 118.608 24.5676 118.559C24.47 118.461 24.3562 118.347 24.2424 118.249C24.1774 118.184 24.1123 118.135 24.0473 118.086C23.9497 117.988 23.8359 117.906 23.7384 117.824C23.6733 117.775 23.6083 117.71 23.527 117.661C23.4132 117.579 23.3156 117.498 23.2018 117.416C23.1368 117.367 23.0555 117.318 22.9905 117.269C22.8766 117.187 22.7628 117.122 22.649 117.04C22.584 116.991 22.5189 116.959 22.4376 116.91C22.3076 116.828 22.1775 116.746 22.0312 116.681C21.9824 116.648 21.9174 116.615 21.8686 116.583C21.6735 116.485 21.4784 116.387 21.2832 116.289C21.2507 116.272 21.2182 116.256 21.202 116.256C21.0394 116.174 20.8605 116.109 20.6979 116.044C20.6329 116.011 20.5516 115.995 20.4865 115.962C20.3565 115.913 20.2101 115.864 20.0801 115.815C19.9988 115.782 19.9175 115.766 19.8362 115.733C19.7061 115.701 19.576 115.652 19.446 115.619C19.3647 115.603 19.2671 115.57 19.1858 115.554C19.0557 115.521 18.9257 115.488 18.7956 115.472C18.7143 115.456 18.6167 115.439 18.5354 115.423C18.4054 115.39 18.259 115.374 18.129 115.358C18.0477 115.341 17.9664 115.341 17.8851 115.325C17.7225 115.309 17.5599 115.292 17.3973 115.276C17.3323 115.276 17.2835 115.26 17.2185 115.26C17.2022 115.26 17.2022 115.26 17.1859 115.26V115.211H17.2022ZM26.3073 124.293C26.3236 124.374 26.3398 124.472 26.3724 124.554C26.4049 124.701 26.4211 124.832 26.4536 124.979C26.4699 125.06 26.4862 125.158 26.5024 125.24C26.5187 125.387 26.535 125.55 26.5512 125.697C26.5512 125.779 26.5675 125.844 26.5675 125.926C26.5837 126.155 26.6 126.384 26.6 126.612V129.013H18.1452L25.3643 121.761C25.4618 121.957 25.5594 122.137 25.657 122.333C25.6732 122.365 25.6895 122.398 25.6895 122.414C25.7708 122.594 25.8521 122.774 25.9171 122.953C25.9496 123.019 25.9659 123.1 25.9984 123.166C26.0472 123.313 26.096 123.443 26.1447 123.59C26.1773 123.672 26.1935 123.754 26.2098 123.835C26.226 124.015 26.2748 124.146 26.3073 124.293ZM17.2022 116.55C17.3973 116.566 17.5924 116.583 17.7713 116.599C17.82 116.599 17.8688 116.615 17.9176 116.615C18.0639 116.632 18.2103 116.664 18.3566 116.681C18.4216 116.697 18.4867 116.713 18.568 116.73C18.698 116.762 18.8119 116.779 18.9419 116.811C19.0232 116.828 19.0883 116.844 19.1696 116.877C19.2834 116.91 19.3972 116.942 19.511 116.975C19.5923 116.991 19.6573 117.024 19.7386 117.04C19.8524 117.073 19.9663 117.122 20.0801 117.155C20.1451 117.187 20.2264 117.204 20.2914 117.236C20.4052 117.285 20.5191 117.334 20.6329 117.383C20.6979 117.416 20.7629 117.449 20.828 117.465C20.9581 117.53 21.0719 117.579 21.1857 117.645C21.2345 117.677 21.2832 117.694 21.332 117.726C21.4946 117.824 21.6735 117.922 21.8361 118.02C21.8523 118.037 21.8686 118.037 21.8848 118.053C22.0312 118.151 22.1775 118.249 22.3238 118.347C22.3726 118.38 22.4214 118.429 22.4864 118.461C22.584 118.543 22.6978 118.608 22.7953 118.69C22.8604 118.739 22.9092 118.788 22.9742 118.837C23.0717 118.919 23.153 118.984 23.2506 119.066C23.3156 119.115 23.3644 119.18 23.4294 119.229C23.5107 119.311 23.592 119.392 23.6733 119.474C23.7384 119.539 23.7871 119.588 23.8359 119.654C23.9172 119.735 23.9985 119.833 24.0798 119.915C24.1286 119.98 24.1774 120.029 24.2424 120.095C24.3237 120.193 24.405 120.291 24.4863 120.389C24.5351 120.438 24.5676 120.503 24.6164 120.552C24.6326 120.568 24.6326 120.585 24.6489 120.601L17.2347 128.05V116.55H17.2022ZM17.2022 130.336H26.5837V141.248L17.2022 136.299V130.336ZM31.7704 158.677H17.2022V137.785L26.5837 142.734L27.7056 143.322L27.9007 143.42L31.7867 145.462V158.677H31.7704ZM31.7704 143.976L30.112 143.11L27.8845 141.934V130.336H31.7704V143.976ZM31.7704 129.013H27.8845V126.612C27.8845 126.351 27.8682 126.073 27.852 125.812C27.852 125.73 27.8357 125.632 27.8194 125.55C27.8032 125.371 27.7869 125.191 27.7544 125.011C27.7381 124.913 27.7219 124.799 27.7056 124.701C27.6731 124.538 27.6568 124.391 27.6243 124.227C27.6081 124.113 27.5755 124.015 27.543 123.901C27.5105 123.754 27.4617 123.607 27.4292 123.46C27.3967 123.345 27.3642 123.247 27.3316 123.133C27.2829 122.986 27.2341 122.839 27.1853 122.708C27.1528 122.594 27.104 122.496 27.0553 122.382C27.0065 122.235 26.9414 122.104 26.8764 121.973C26.8276 121.859 26.7788 121.761 26.7301 121.663C26.665 121.532 26.6 121.402 26.5187 121.254C26.4699 121.156 26.4049 121.042 26.3561 120.944C26.3236 120.895 26.3073 120.846 26.2748 120.813L26.2911 120.797L27.6731 119.409L29.0876 117.988C30.8274 120.536 31.7379 123.509 31.7379 126.629V129.013H31.7704Z" fill="white"/>
<path d="M43.6721 130.255H47.6881V140.301H49.5579V130.255H53.5902V129.128H43.6721V130.255Z" fill="white"/>
<path d="M54.9885 129.128V129.487C56.338 129.487 56.3706 130.598 56.3868 130.663V140.301H58.2566V129.128H54.9885Z" fill="white"/>
<path d="M62.793 129.128H59.5249V129.487C60.9232 129.487 60.9232 130.663 60.9232 130.663V140.301H68.4024V139.369H62.793V129.128Z" fill="white"/>
<path d="M69.6055 140.301H70.6623L72.4021 136.772H76.6619L78.3692 140.301H80.678L74.971 128.883L69.6055 140.301ZM72.7435 135.841L74.597 131.79L76.3368 135.841H72.7435Z" fill="white"/>
<path d="M84.0761 139.369V129.128H80.873V129.487C81.7836 129.487 82.0925 129.977 82.2063 130.336V140.301H89.6855V139.369H84.0761Z" fill="white"/>
<path d="M121.797 129.128H124.122L128.041 137.295H128.138L132.382 129.128H134.252V140.301H132.382V131.137H132.317L127.569 140.301L122.757 131.219H122.627V140.301H121.797V129.128Z" fill="white"/>
<path d="M97.0346 134.943V140.301H95.1648V129.128H97.0346V134.012H102.611V129.128H104.481V140.301H102.611V134.943H97.0346Z" fill="white"/>
<path d="M113.148 140.562C112.286 140.562 111.489 140.415 110.741 140.105C109.993 139.794 109.343 139.369 108.79 138.83C108.237 138.291 107.798 137.671 107.489 136.952C107.18 136.233 107.018 135.466 107.018 134.649C107.018 134.11 107.083 133.603 107.229 133.113C107.376 132.623 107.571 132.166 107.831 131.725C108.091 131.3 108.416 130.908 108.79 130.565C109.164 130.222 109.571 129.912 110.026 129.667C110.481 129.422 110.969 129.226 111.505 129.079C112.042 128.948 112.578 128.866 113.148 128.866C113.717 128.866 114.269 128.932 114.806 129.079C115.326 129.209 115.83 129.405 116.286 129.667C116.741 129.912 117.147 130.222 117.521 130.565C117.895 130.908 118.204 131.3 118.481 131.725C118.741 132.15 118.952 132.607 119.098 133.113C119.245 133.603 119.31 134.126 119.31 134.649C119.31 135.188 119.245 135.711 119.098 136.217C118.952 136.723 118.757 137.181 118.481 137.622C118.22 138.063 117.895 138.455 117.521 138.814C117.147 139.173 116.741 139.484 116.286 139.745C115.83 140.007 115.343 140.203 114.806 140.35C114.269 140.48 113.717 140.562 113.148 140.562ZM113.148 140.007C113.782 140.007 114.351 139.876 114.838 139.615C115.326 139.353 115.733 138.977 116.074 138.504C116.416 138.03 116.66 137.458 116.838 136.805C117.001 136.152 117.099 135.433 117.099 134.665C117.099 133.897 117.017 133.195 116.838 132.558C116.676 131.921 116.416 131.366 116.074 130.908C115.733 130.451 115.326 130.091 114.838 129.83C114.351 129.569 113.782 129.454 113.148 129.454C112.497 129.454 111.928 129.585 111.44 129.83C110.953 130.091 110.546 130.451 110.205 130.908C109.879 131.366 109.619 131.921 109.457 132.558C109.294 133.195 109.213 133.897 109.213 134.665C109.213 135.433 109.294 136.152 109.457 136.805C109.619 137.458 109.879 138.014 110.205 138.504C110.53 138.977 110.953 139.353 111.44 139.615C111.928 139.86 112.497 140.007 113.148 140.007Z" fill="white"/>
<path d="M145.015 129.128V130.042H139.146V134.044H143.081V134.975H139.146V139.369H145.015V140.301H137.276V129.128H145.015Z" fill="white"/>
<path d="M150.852 139.843C151.129 139.843 151.405 139.811 151.665 139.729C151.942 139.647 152.169 139.533 152.381 139.386C152.592 139.239 152.771 139.059 152.885 138.83C153.015 138.618 153.08 138.357 153.08 138.079C153.08 137.736 152.999 137.426 152.82 137.164C152.641 136.903 152.413 136.658 152.121 136.429C151.828 136.201 151.503 136.005 151.145 135.809C150.771 135.613 150.413 135.417 150.023 135.221C149.649 135.024 149.275 134.812 148.901 134.6C148.527 134.387 148.202 134.142 147.926 133.881C147.633 133.62 147.405 133.309 147.227 132.983C147.048 132.656 146.966 132.28 146.966 131.856C146.966 131.431 147.048 131.039 147.21 130.663C147.373 130.304 147.601 129.977 147.909 129.716C148.218 129.454 148.592 129.242 149.048 129.095C149.503 128.948 150.007 128.866 150.592 128.866C151.113 128.866 151.584 128.915 152.007 129.03C152.413 129.144 152.787 129.307 153.096 129.52C153.405 129.732 153.681 130.01 153.893 130.336C154.104 130.663 154.283 131.023 154.429 131.447L153.47 131.888C153.356 131.545 153.21 131.235 153.047 130.941C152.869 130.663 152.673 130.418 152.43 130.206C152.186 130.01 151.909 129.846 151.6 129.732C151.291 129.618 150.934 129.569 150.527 129.569C150.17 129.569 149.861 129.618 149.6 129.716C149.34 129.814 149.113 129.944 148.934 130.108C148.755 130.271 148.625 130.451 148.544 130.647C148.462 130.843 148.414 131.055 148.414 131.251C148.414 131.545 148.495 131.807 148.674 132.052C148.853 132.297 149.096 132.525 149.389 132.738C149.682 132.95 150.023 133.162 150.397 133.358C150.771 133.554 151.161 133.767 151.552 133.979C151.942 134.191 152.332 134.404 152.706 134.632C153.08 134.861 153.421 135.106 153.714 135.368C154.007 135.629 154.251 135.923 154.429 136.25C154.608 136.56 154.706 136.919 154.706 137.311C154.706 137.752 154.625 138.177 154.462 138.569C154.299 138.961 154.039 139.304 153.714 139.582C153.373 139.876 152.966 140.105 152.462 140.268C151.958 140.431 151.389 140.513 150.722 140.513C150.186 140.513 149.714 140.448 149.291 140.333C148.869 140.219 148.495 140.039 148.186 139.827C147.861 139.598 147.584 139.32 147.357 139.01C147.129 138.683 146.934 138.324 146.788 137.899L147.779 137.491C147.893 137.85 148.056 138.177 148.251 138.471C148.446 138.765 148.674 138.994 148.95 139.206C149.21 139.402 149.503 139.565 149.828 139.664C150.137 139.794 150.478 139.843 150.852 139.843Z" fill="white"/>
<path d="M89.7669 145.577C89.6206 145.74 89.5393 145.92 89.5393 146.132C89.5393 146.344 89.6206 146.54 89.7669 146.687C89.9133 146.851 90.1084 146.916 90.3198 146.916C90.5474 146.916 90.7262 146.834 90.8888 146.687C91.0352 146.54 91.1165 146.344 91.1165 146.132C91.1165 145.92 91.0352 145.74 90.8888 145.577C90.5799 145.283 90.0759 145.266 89.7669 145.577Z" fill="white"/>
<path d="M94.108 145.528C93.9617 145.691 93.8804 145.871 93.8804 146.083C93.8804 146.312 93.9617 146.491 94.108 146.655C94.2543 146.818 94.4494 146.883 94.6608 146.883C94.8884 146.883 95.0673 146.802 95.2299 146.655C95.3925 146.508 95.4575 146.312 95.4575 146.083C95.4575 145.871 95.3762 145.675 95.2299 145.528C94.9209 145.217 94.4169 145.217 94.108 145.528Z" fill="white"/>
<path d="M49.2003 145.283H47.6882V154.773H49.2003V145.283Z" fill="white"/>
<path d="M55.6551 147.733C54.8422 147.733 54.1755 148.043 53.6552 148.647V147.863H52.3545V154.773H53.7203V151C53.7203 150.379 53.8666 149.873 54.1755 149.497C54.4682 149.138 54.8584 148.958 55.3462 148.958C55.7201 148.958 56.0128 149.056 56.2242 149.252C56.4355 149.448 56.5331 149.726 56.5331 150.069V154.757H57.8826V149.644C57.8826 149.056 57.6712 148.582 57.2648 148.239C56.8745 147.896 56.338 147.733 55.6551 147.733Z" fill="white"/>
<path d="M70.9062 152.388L66.3861 145.283H64.874V154.773H66.3048V147.733L70.7273 154.708L70.7761 154.773H72.3207V145.283H70.9062V152.388Z" fill="white"/>
<path d="M81.3121 153.581C81.2959 153.581 81.2634 153.597 81.2308 153.613C81.052 153.679 81.0195 153.679 81.0195 153.679C80.8894 153.679 80.7593 153.646 80.7593 153.352V149.677C80.7593 148.386 79.8813 147.716 78.1416 147.716C77.0847 147.716 76.3043 147.994 75.8328 148.549C75.5401 148.876 75.3938 149.366 75.3613 149.987V150.15H76.7433L76.7596 150.003C76.8246 149.317 77.2473 149.007 78.1091 149.007C79.4261 149.007 79.4261 149.628 79.4261 149.824L79.4098 150.248L77.3937 150.706C76.5807 150.885 76.0604 151.081 75.784 151.277C75.3125 151.637 75.0686 152.159 75.0686 152.829C75.0686 153.417 75.2637 153.891 75.6214 154.267C76.0442 154.691 76.6295 154.904 77.3774 154.904C78.3042 154.904 79.0196 154.642 79.5236 154.136C79.6862 154.626 80.0927 154.871 80.7268 154.871C80.9057 154.871 81.1495 154.822 81.4585 154.708L81.5723 154.675V153.45L81.3121 153.581ZM77.5888 153.679C76.5644 153.679 76.4506 153.188 76.4506 152.829C76.4506 152.6 76.5319 152.421 76.7271 152.29C76.9384 152.143 77.3286 151.996 77.914 151.849L79.3936 151.473V152.421C79.3936 152.698 79.2797 152.927 79.0358 153.139C78.6456 153.499 78.1741 153.679 77.5888 153.679Z" fill="white"/>
<path d="M86.8565 147.716C86.1573 147.716 85.6045 148.01 85.2143 148.598V147.88H83.9136V154.789H85.2793V151.212C85.2793 150.346 85.4907 149.742 85.9135 149.432C86.1411 149.268 86.5801 149.17 87.2142 149.17H87.3768V147.798L87.2467 147.782C87.1004 147.733 86.9703 147.716 86.8565 147.716Z" fill="white"/>
<path d="M89.653 155.573C89.653 155.933 89.588 156.08 89.5229 156.129C89.4579 156.194 89.3115 156.259 88.9538 156.259H88.5474V157.435L88.6612 157.468C88.775 157.501 88.8888 157.517 89.0351 157.517C90.6611 157.517 91.0025 156.684 91.0025 155.982V147.863H89.6367V155.573H89.653Z" fill="white"/>
<path d="M95.3112 147.863H93.9617V154.773H95.3112V147.863Z" fill="white"/>
<path d="M103.067 151.457C102.758 151.147 102.27 150.918 101.571 150.755L100.563 150.526C99.8475 150.363 99.4736 150.101 99.4736 149.758C99.4736 149.53 99.5711 149.35 99.7825 149.219C100.01 149.072 100.319 148.991 100.726 148.991C101.717 148.991 101.864 149.464 101.88 149.824L101.896 149.971H103.359V149.807C103.359 149.219 103.148 148.729 102.725 148.337C102.254 147.912 101.587 147.7 100.758 147.7C99.9613 147.7 99.311 147.88 98.8232 148.255C98.3354 148.631 98.0753 149.154 98.0753 149.807C98.0753 150.379 98.2704 150.836 98.6443 151.147C98.9695 151.408 99.5061 151.637 100.287 151.816L101.262 152.045C102.14 152.257 102.14 152.649 102.14 152.78C102.14 153.009 102.026 153.189 101.799 153.336C101.555 153.499 101.197 153.581 100.774 153.581C100.205 153.581 99.7987 153.466 99.6036 153.221C99.5061 153.107 99.4248 152.911 99.3597 152.633L99.3272 152.502H97.8477V152.666C97.8802 153.287 98.1078 153.793 98.5305 154.169C99.0183 154.626 99.75 154.855 100.693 154.855C101.555 154.855 102.238 154.659 102.758 154.283C103.278 153.891 103.555 153.352 103.555 152.666C103.538 152.208 103.376 151.767 103.067 151.457Z" fill="white"/>
</svg>
