<svg width="186" height="60" viewBox="0 0 186 60" fill="none" xmlns="http://www.w3.org/2000/svg">
<path d="M36.0758 8.42862L35.6661 7.87977L35.1198 7.15452L35.1003 7.17413C34.7101 6.70369 34.3198 6.25286 33.8906 5.84123C30.1445 2.07775 25.1497 0 19.8427 0C13.8723 0 8.37022 2.60699 4.58508 7.19372V7.13492L4.03878 7.86018L3.62904 8.40902C1.2487 11.7805 0 15.74 0 19.9151V22.8161V24.4038V41.6139V43.3976V60H39.7049V43.3976V41.6139V24.4038V22.8161V19.9347C39.7049 15.7596 38.4562 11.8001 36.0758 8.42862ZM19.0622 1.58772V6.25286V6.27246C19.0427 6.27246 19.0427 6.27246 19.0232 6.27246C18.9452 6.27246 18.8671 6.29206 18.7891 6.29206C18.594 6.31166 18.3989 6.33126 18.2233 6.35086C18.1257 6.37047 18.0282 6.37047 17.9306 6.39007C17.7745 6.40967 17.5989 6.42927 17.4428 6.46847C17.3453 6.48808 17.2282 6.50767 17.1307 6.52728C16.9746 6.56648 16.8185 6.58608 16.6624 6.62528C16.5648 6.64489 16.4478 6.68409 16.3502 6.70369C16.1941 6.74289 16.038 6.7821 15.882 6.8409C15.7844 6.8801 15.6868 6.8997 15.5893 6.93891C15.4332 6.99771 15.2771 7.05652 15.1015 7.11532C15.0235 7.15452 14.9259 7.17412 14.8479 7.21333C14.6528 7.29173 14.4381 7.38974 14.243 7.46815C14.204 7.48775 14.165 7.50735 14.126 7.52695C13.8918 7.64456 13.6577 7.76217 13.4236 7.87977C13.3455 7.91898 13.287 7.95818 13.2089 7.99738C13.0529 8.09539 12.8968 8.1738 12.7407 8.2718C12.6626 8.33061 12.5651 8.36981 12.487 8.42862C12.3505 8.52663 12.2139 8.60503 12.0773 8.70304C11.9993 8.76184 11.9017 8.82064 11.8237 8.87945C11.6871 8.97746 11.57 9.07546 11.4334 9.17347C11.3554 9.23228 11.2774 9.31068 11.1798 9.36948C11.0627 9.46749 10.9262 9.5851 10.8091 9.68311C10.7311 9.74191 10.653 9.82032 10.575 9.87912C10.4384 9.99673 10.3213 10.1339 10.1847 10.2515C10.1262 10.3104 10.0677 10.3692 10.0091 10.428C9.83354 10.6044 9.65794 10.8004 9.48234 10.9964L9.46283 11.016C9.30674 11.212 9.15065 11.408 8.99456 11.604L5.67769 8.2718C9.03359 4.21431 13.8333 1.80333 19.0622 1.58772ZM17.9306 24.4038H19.0622V25.5211V31.5583L7.8044 37.4976V24.4038H17.9306ZM7.8044 22.8161V19.9347C7.8044 19.6602 7.82391 19.3858 7.84342 19.1114C7.84342 19.0134 7.86293 18.935 7.86293 18.837C7.88244 18.641 7.90195 18.4646 7.92146 18.2881C7.94097 18.1901 7.96048 18.0725 7.96048 17.9745C7.97999 17.7981 8.01902 17.6413 8.05804 17.4649C8.07755 17.3669 8.09706 17.2493 8.13609 17.1513C8.17511 16.9944 8.21413 16.818 8.27267 16.6612C8.29218 16.5632 8.3312 16.4652 8.37022 16.3476C8.42875 16.1712 8.48728 15.9948 8.54581 15.838C8.58484 15.7596 8.60435 15.6615 8.64337 15.5831C8.72141 15.3675 8.81897 15.1519 8.91653 14.9363C8.93604 14.8971 8.95555 14.8579 8.95555 14.8187C9.07262 14.5835 9.18968 14.3483 9.30675 14.1326L17.9696 22.8357H7.8044V22.8161ZM10.1652 12.7605C10.1847 12.7409 10.1847 12.7213 10.2042 12.7017C10.2628 12.6233 10.3018 12.5645 10.3603 12.5057C10.4579 12.3881 10.5554 12.2705 10.653 12.1529C10.7115 12.0745 10.7701 12.0157 10.8481 11.9373C10.9457 11.8393 11.0432 11.7217 11.1408 11.6236C11.1993 11.5452 11.2774 11.4864 11.3359 11.408C11.4334 11.31 11.531 11.212 11.6285 11.114C11.7066 11.0552 11.7651 10.9768 11.8432 10.918C11.9407 10.82 12.0578 10.722 12.1749 10.6436C12.2529 10.5848 12.3114 10.526 12.3895 10.4672C12.5065 10.3692 12.6431 10.2712 12.7602 10.1927C12.8187 10.1535 12.8773 10.0947 12.9553 10.0555C13.1309 9.93793 13.3065 9.82032 13.4821 9.70271C13.5016 9.68311 13.5211 9.68311 13.5406 9.66351C13.7357 9.5459 13.9309 9.42829 14.1455 9.31068C14.204 9.27148 14.2625 9.25188 14.3406 9.21268C14.4772 9.13427 14.6332 9.05586 14.7698 8.99706C14.8479 8.95786 14.9259 8.91865 15.004 8.89905C15.1405 8.84025 15.2771 8.78144 15.4137 8.72264C15.4917 8.68344 15.5893 8.66384 15.6673 8.62463C15.8039 8.58543 15.9405 8.52662 16.0575 8.48742C16.1551 8.44822 16.2332 8.42862 16.3307 8.40902C16.4673 8.36981 16.6039 8.33061 16.7404 8.29141C16.838 8.2718 16.916 8.2522 17.0136 8.213C17.1502 8.1738 17.3063 8.1542 17.4428 8.11499C17.5209 8.09539 17.6184 8.07579 17.6965 8.05619C17.8721 8.01699 18.0282 7.99738 18.2038 7.97778C18.2623 7.97778 18.3208 7.95818 18.3989 7.95818C18.633 7.93858 18.8671 7.89938 19.0818 7.89938V21.738L10.1652 12.7605ZM1.56088 19.9347C1.56088 16.1908 2.65349 12.6233 4.74117 9.5655L8.11657 12.9566C8.07755 13.0154 8.05804 13.0742 8.01901 13.1134C7.94097 13.231 7.88244 13.3486 7.8239 13.4858C7.74586 13.6426 7.64831 13.7994 7.57026 13.9758C7.51173 14.0934 7.4532 14.2306 7.39467 14.3482C7.31663 14.5051 7.25809 14.6815 7.18004 14.8383C7.12151 14.9755 7.08249 15.0931 7.02396 15.2303C6.96543 15.4067 6.90689 15.5831 6.84835 15.74C6.80933 15.8772 6.77032 15.9948 6.73129 16.132C6.67276 16.3084 6.63374 16.4848 6.59471 16.6612C6.55569 16.7984 6.53618 16.916 6.49716 17.0533C6.45814 17.2493 6.41912 17.4257 6.3996 17.6217C6.38009 17.7393 6.36058 17.8765 6.34107 17.9941C6.30205 18.2097 6.28254 18.4254 6.26302 18.641C6.26302 18.739 6.24352 18.8566 6.22401 18.9546C6.2045 19.2682 6.18499 19.6014 6.18499 19.9151V22.8161H1.52186V19.9347H1.56088ZM1.56088 24.4038H6.22401V38.3208L5.54113 38.6736L1.56088 40.771V24.4038ZM19.0622 58.4123H1.56088V42.5743L7.8044 39.2813L18.2623 33.7733L19.0622 33.3616V58.4123ZM20.6426 6.25286V1.58772C25.2277 1.78373 29.5201 3.66547 32.7785 6.95851C33.2077 7.38974 33.5979 7.82097 33.9881 8.29141L30.6908 11.604L30.6713 11.6236C30.5152 11.4276 30.3591 11.2316 30.203 11.0356C30.1835 11.016 30.1835 11.016 30.164 10.9964C30.0079 10.8004 29.8323 10.624 29.6567 10.4476C29.5982 10.3888 29.5396 10.33 29.4811 10.2712C29.364 10.1535 29.2275 10.0163 29.0909 9.89873C29.0128 9.82032 28.9348 9.76152 28.8568 9.70271C28.7397 9.5851 28.6031 9.48709 28.4861 9.38909C28.408 9.33028 28.33 9.25188 28.2324 9.19307C28.0958 9.09507 27.9788 8.99706 27.8422 8.89905C27.7641 8.84025 27.6666 8.78144 27.5886 8.72264C27.452 8.62463 27.3154 8.54623 27.1788 8.44822C27.1008 8.38942 27.0227 8.35021 26.9252 8.29141C26.7691 8.1934 26.613 8.09539 26.4374 8.01699C26.3789 7.97778 26.3008 7.93858 26.2423 7.89938C26.0082 7.78177 25.774 7.66416 25.5399 7.54655C25.5009 7.52695 25.4619 7.50735 25.4423 7.50735C25.2472 7.40934 25.0326 7.33094 24.8375 7.25253C24.7595 7.21333 24.6619 7.19373 24.5839 7.15452C24.4278 7.09572 24.2522 7.03692 24.0961 6.97811C23.9985 6.93891 23.901 6.91931 23.8034 6.88011C23.6473 6.8409 23.4912 6.7821 23.3351 6.74289C23.2376 6.72329 23.1205 6.68409 23.023 6.66449C22.8669 6.62529 22.7108 6.58608 22.5547 6.56648C22.4571 6.54688 22.3401 6.52728 22.2425 6.50767C22.0864 6.46847 21.9108 6.44887 21.7548 6.42927C21.6572 6.40967 21.5596 6.40967 21.4621 6.39007C21.267 6.37047 21.0719 6.35086 20.8768 6.33126C20.7987 6.33126 20.7402 6.31166 20.6621 6.31166C20.6426 6.31166 20.6426 6.31166 20.6231 6.31166V6.25286H20.6426ZM31.5688 17.1513C31.5883 17.2493 31.6078 17.3669 31.6468 17.4649C31.6858 17.6413 31.7054 17.7981 31.7444 17.9745C31.7639 18.0725 31.7834 18.1901 31.8029 18.2881C31.8224 18.4646 31.842 18.6606 31.8615 18.837C31.8615 18.935 31.881 19.0134 31.881 19.1114C31.9005 19.3858 31.92 19.6602 31.92 19.9347V22.8161H21.7743L30.4372 14.113C30.5542 14.3483 30.6713 14.5639 30.7884 14.7991C30.8079 14.8383 30.8274 14.8775 30.8274 14.8971C30.9249 15.1127 31.0225 15.3283 31.1005 15.5439C31.1396 15.6223 31.1591 15.7204 31.1981 15.7988C31.2566 15.9752 31.3152 16.132 31.3737 16.3084C31.4127 16.4064 31.4322 16.5044 31.4517 16.6024C31.4712 16.818 31.5298 16.9748 31.5688 17.1513ZM20.6426 7.86018C20.8768 7.87978 21.1109 7.89938 21.3255 7.91898C21.384 7.91898 21.4426 7.93858 21.5011 7.93858C21.6767 7.95818 21.8523 7.99739 22.0279 8.01699C22.106 8.03659 22.184 8.05619 22.2816 8.07579C22.4376 8.11499 22.5742 8.13459 22.7303 8.1738C22.8279 8.1934 22.9059 8.213 23.0035 8.25221C23.14 8.29141 23.2766 8.33061 23.4132 8.36981C23.5107 8.38941 23.5888 8.42862 23.6864 8.44822C23.8229 8.48742 23.9595 8.54622 24.0961 8.58543C24.1741 8.62463 24.2717 8.64423 24.3497 8.68343C24.4863 8.74224 24.6229 8.80104 24.7595 8.85985C24.8375 8.89905 24.9155 8.93825 24.9936 8.95785C25.1497 9.03626 25.2862 9.09506 25.4228 9.17347C25.4814 9.21267 25.5399 9.23228 25.5984 9.27148C25.7935 9.38909 26.0082 9.5067 26.2033 9.62431C26.2228 9.64391 26.2423 9.6439 26.2618 9.66351C26.4374 9.78111 26.613 9.89873 26.7886 10.0163C26.8471 10.0555 26.9057 10.1143 26.9837 10.1535C27.1008 10.2515 27.2374 10.33 27.3544 10.428C27.4325 10.4868 27.491 10.5456 27.569 10.6044C27.6861 10.7024 27.7837 10.7808 27.9007 10.8788C27.9788 10.9376 28.0373 11.016 28.1153 11.0748C28.2129 11.1728 28.3104 11.2708 28.408 11.3688C28.486 11.4472 28.5446 11.506 28.6031 11.5845C28.7007 11.6825 28.7982 11.8001 28.8958 11.8981C28.9543 11.9765 29.0128 12.0353 29.0909 12.1137C29.1884 12.2313 29.286 12.3489 29.3836 12.4665C29.4421 12.5253 29.4811 12.6037 29.5397 12.6625C29.5592 12.6821 29.5592 12.7017 29.5787 12.7213L20.6817 21.6596V7.86018H20.6426ZM20.6426 24.4038H31.9005V37.4976L20.6426 31.5583V24.4038ZM38.1245 58.4123H20.6426V33.342L31.9005 39.2813L33.2467 39.9869L33.4809 40.1045L38.144 42.5547V58.4123H38.1245ZM38.1245 40.771L36.1344 39.7321L33.4614 38.3208V24.4038H38.1245V40.771ZM38.1245 22.8161H33.4614V19.9347C33.4614 19.621 33.4419 19.2878 33.4223 18.9742C33.4223 18.8762 33.4028 18.7586 33.3833 18.6606C33.3638 18.4449 33.3443 18.2293 33.3053 18.0137C33.2857 17.8961 33.2663 17.7589 33.2467 17.6413C33.2077 17.4453 33.1882 17.2689 33.1492 17.0729C33.1297 16.9356 33.0907 16.818 33.0516 16.6808C33.0126 16.5044 32.9541 16.328 32.915 16.1516C32.876 16.0144 32.837 15.8968 32.798 15.7596C32.7394 15.5831 32.6809 15.4067 32.6224 15.2499C32.5834 15.1127 32.5248 14.9951 32.4663 14.8579C32.4078 14.6815 32.3297 14.5247 32.2517 14.3679C32.1931 14.2306 32.1346 14.113 32.0761 13.9954C31.998 13.8386 31.92 13.6818 31.8224 13.5054C31.7639 13.3878 31.6859 13.2506 31.6273 13.133C31.5883 13.0742 31.5688 13.0154 31.5298 12.9761L31.5493 12.9566L33.2077 11.2904L34.9052 9.5851C36.9929 12.6429 38.0855 16.2104 38.0855 19.9543V22.8161H38.1245Z" fill="white"/>
<path d="M52.4062 24.3057H57.2255V36.3606H59.4692V24.3057H64.308V22.9532H52.4062V24.3057Z" fill="white"/>
<path d="M65.9863 22.9532V23.3845C67.6057 23.3845 67.6448 24.7174 67.6643 24.7958V36.3606H69.9081V22.9532H65.9863Z" fill="white"/>
<path d="M75.3514 22.9532H71.4297V23.3845C73.1076 23.3845 73.1076 24.7958 73.1076 24.7958V36.3606H82.0827V35.2434H75.3514V22.9532Z" fill="white"/>
<path d="M83.5264 36.3607H84.7946L86.8823 32.1268H91.9941L94.0428 36.3607H96.8133L89.965 22.6593L83.5264 36.3607ZM87.292 31.0095L89.5163 26.1484L91.6039 31.0095H87.292Z" fill="white"/>
<path d="M100.892 35.2434V22.9532H97.0479V23.3845C98.1405 23.3845 98.5112 23.9725 98.6477 24.4038V36.3606H107.623V35.2434H100.892Z" fill="white"/>
<path d="M146.157 22.9532H148.947L153.649 32.754H153.767L158.859 22.9532H161.103V36.3606H158.859V25.3642H158.781L153.084 36.3606L147.308 25.4622H147.152V36.3606H146.157V22.9532Z" fill="white"/>
<path d="M116.442 29.9314V36.3606H114.198V22.9532H116.442V28.8141H123.134V22.9532H125.378V36.3606H123.134V29.9314H116.442Z" fill="white"/>
<path d="M135.777 36.6743C134.742 36.6743 133.786 36.4979 132.889 36.1254C131.991 35.753 131.211 35.2434 130.548 34.5965C129.884 33.9497 129.357 33.2048 128.987 32.3424C128.616 31.4799 128.421 30.5586 128.421 29.5786C128.421 28.9317 128.499 28.3241 128.675 27.736C128.85 27.148 129.084 26.5991 129.396 26.0699C129.709 25.5603 130.099 25.0898 130.548 24.6782C130.996 24.2666 131.484 23.8941 132.03 23.6001C132.577 23.3061 133.162 23.0709 133.806 22.8945C134.45 22.7377 135.094 22.6396 135.777 22.6396C136.459 22.6396 137.123 22.7181 137.767 22.8945C138.391 23.0513 138.996 23.2865 139.542 23.6001C140.088 23.8941 140.576 24.2666 141.025 24.6782C141.474 25.0898 141.844 25.5603 142.176 26.0699C142.488 26.5795 142.742 27.1284 142.918 27.736C143.093 28.3241 143.171 28.9513 143.171 29.5786C143.171 30.2254 143.093 30.8526 142.918 31.4603C142.742 32.0679 142.508 32.6168 142.176 33.146C141.864 33.6753 141.474 34.1457 141.025 34.5769C140.576 35.0082 140.088 35.3806 139.542 35.6942C138.996 36.0078 138.411 36.2431 137.767 36.4195C137.123 36.5763 136.459 36.6743 135.777 36.6743ZM135.777 36.0078C136.537 36.0078 137.22 35.851 137.806 35.5374C138.391 35.2238 138.879 34.7729 139.289 34.2045C139.698 33.636 139.991 32.95 140.206 32.1659C140.401 31.3819 140.518 30.5194 140.518 29.5982C140.518 28.6769 140.42 27.834 140.206 27.0696C140.01 26.3051 139.698 25.6387 139.289 25.0898C138.879 24.541 138.391 24.1098 137.806 23.7961C137.22 23.4825 136.537 23.3453 135.777 23.3453C134.996 23.3453 134.313 23.5021 133.728 23.7961C133.143 24.1098 132.655 24.541 132.245 25.0898C131.855 25.6387 131.543 26.3051 131.348 27.0696C131.152 27.834 131.055 28.6769 131.055 29.5982C131.055 30.5194 131.152 31.3819 131.348 32.1659C131.543 32.95 131.855 33.6164 132.245 34.2045C132.635 34.7729 133.143 35.2238 133.728 35.5374C134.313 35.8314 134.996 36.0078 135.777 36.0078Z" fill="white"/>
<path d="M174.019 22.9532V24.0509H166.975V28.8533H171.697V29.9706H166.975V35.2434H174.019V36.3606H164.731V22.9532H174.019Z" fill="white"/>
<path d="M181.023 35.8118C181.355 35.8118 181.687 35.7726 181.999 35.6746C182.33 35.5766 182.604 35.4394 182.857 35.263C183.111 35.0866 183.326 34.8709 183.462 34.5965C183.618 34.3417 183.696 34.0281 183.696 33.6949C183.696 33.2832 183.599 32.9108 183.384 32.5972C183.169 32.2836 182.896 31.9895 182.545 31.7151C182.194 31.4407 181.804 31.2055 181.374 30.9703C180.926 30.735 180.496 30.4998 180.028 30.2646C179.579 30.0294 179.131 29.7746 178.682 29.5198C178.233 29.2649 177.843 28.9709 177.511 28.6573C177.16 28.3437 176.887 27.9712 176.672 27.5792C176.458 27.1872 176.36 26.7364 176.36 26.2267C176.36 25.7171 176.458 25.2466 176.653 24.7958C176.848 24.3646 177.121 23.9725 177.492 23.6589C177.862 23.3453 178.311 23.0905 178.858 22.9141C179.404 22.7377 180.009 22.6396 180.711 22.6396C181.335 22.6396 181.901 22.6985 182.409 22.8357C182.896 22.9729 183.345 23.1689 183.716 23.4237C184.086 23.6785 184.418 24.0117 184.672 24.4038C184.925 24.7958 185.14 25.227 185.316 25.7367L184.165 26.2659C184.028 25.8543 183.852 25.4819 183.657 25.129C183.443 24.7958 183.208 24.5018 182.916 24.247C182.623 24.0117 182.291 23.8157 181.921 23.6785C181.55 23.5413 181.121 23.4825 180.633 23.4825C180.204 23.4825 179.833 23.5413 179.521 23.6589C179.209 23.7765 178.936 23.9333 178.721 24.1294C178.506 24.3254 178.35 24.541 178.253 24.7762C178.155 25.0114 178.097 25.2662 178.097 25.5015C178.097 25.8543 178.194 26.1679 178.409 26.4619C178.623 26.7559 178.916 27.0304 179.267 27.2852C179.618 27.54 180.028 27.7948 180.477 28.03C180.926 28.2653 181.394 28.5201 181.862 28.7749C182.33 29.0297 182.799 29.2845 183.247 29.559C183.696 29.8334 184.106 30.1274 184.457 30.441C184.808 30.7546 185.101 31.1075 185.316 31.4995C185.53 31.8719 185.647 32.3032 185.647 32.7736C185.647 33.3028 185.55 33.8125 185.355 34.2829C185.16 34.7533 184.847 35.165 184.457 35.4982C184.047 35.851 183.56 36.1254 182.955 36.3215C182.35 36.5175 181.667 36.6155 180.867 36.6155C180.223 36.6155 179.657 36.5371 179.15 36.3999C178.643 36.2626 178.194 36.047 177.823 35.7922C177.433 35.5178 177.102 35.1846 176.828 34.8121C176.555 34.4201 176.321 33.9889 176.146 33.4792L177.336 32.9892C177.472 33.4204 177.667 33.8125 177.901 34.1653C178.136 34.5181 178.409 34.7925 178.74 35.0474C179.053 35.2826 179.404 35.4786 179.794 35.5962C180.165 35.753 180.575 35.8118 181.023 35.8118Z" fill="white"/>
<path d="M107.72 42.6919C107.545 42.888 107.447 43.1036 107.447 43.3584C107.447 43.6132 107.545 43.8484 107.72 44.0248C107.896 44.2208 108.13 44.2992 108.384 44.2992C108.657 44.2992 108.872 44.2012 109.067 44.0248C109.242 43.8484 109.34 43.6132 109.34 43.3584C109.34 43.1036 109.242 42.888 109.067 42.6919C108.696 42.3391 108.091 42.3195 107.72 42.6919Z" fill="white"/>
<path d="M112.929 42.6331C112.754 42.8291 112.656 43.0447 112.656 43.2995C112.656 43.574 112.754 43.7896 112.929 43.9856C113.105 44.1816 113.339 44.26 113.593 44.26C113.866 44.26 114.081 44.162 114.276 43.9856C114.471 43.8092 114.549 43.574 114.549 43.2995C114.549 43.0447 114.451 42.8095 114.276 42.6331C113.905 42.2607 113.3 42.2607 112.929 42.6331Z" fill="white"/>
<path d="M59.0401 42.3391H57.2256V53.7276H59.0401V42.3391Z" fill="white"/>
<path d="M66.7859 45.2793C65.8104 45.2793 65.0104 45.6517 64.3861 46.377V45.4361H62.8252V53.7275H64.4641V49.1996C64.4641 48.4547 64.6397 47.8471 65.0104 47.3963C65.3616 46.965 65.8299 46.7494 66.4152 46.7494C66.864 46.7494 67.2152 46.867 67.4688 47.1022C67.7225 47.3375 67.8395 47.6707 67.8395 48.0823V53.7079H69.4589V47.5727C69.4589 46.867 69.2053 46.2986 68.7175 45.8869C68.2492 45.4753 67.6054 45.2793 66.7859 45.2793Z" fill="white"/>
<path d="M85.0872 50.8657L79.6632 42.3391H77.8486V53.7276H79.5656V45.2793L84.8726 53.6491L84.9311 53.7276H86.7847V42.3391H85.0872V50.8657Z" fill="white"/>
<path d="M97.5743 52.2967C97.5547 52.2967 97.5157 52.3163 97.4767 52.3359C97.2621 52.4143 97.2231 52.4143 97.2231 52.4143C97.067 52.4143 96.9109 52.3751 96.9109 52.0223V47.6119C96.9109 46.0634 95.8573 45.2598 93.7696 45.2598C92.5014 45.2598 91.5649 45.593 90.9991 46.2594C90.6479 46.6515 90.4723 47.2395 90.4332 47.9844V48.1804H92.0917L92.1112 48.004C92.1892 47.1807 92.6965 46.8083 93.7306 46.8083C95.311 46.8083 95.311 47.5531 95.311 47.7884L95.2915 48.298L92.8721 48.8468C91.8966 49.0624 91.2722 49.2977 90.9405 49.5329C90.3747 49.9641 90.082 50.5914 90.082 51.395C90.082 52.1007 90.3162 52.6691 90.7454 53.1199C91.2527 53.6296 91.9551 53.8844 92.8526 53.8844C93.9647 53.8844 94.8232 53.5708 95.428 52.9631C95.6232 53.5512 96.1109 53.8452 96.8719 53.8452C97.0865 53.8452 97.3792 53.7864 97.7499 53.6492L97.8864 53.61V52.1399L97.5743 52.2967ZM93.1062 52.4143C91.877 52.4143 91.7405 51.8262 91.7405 51.395C91.7405 51.1206 91.838 50.905 92.0722 50.7482C92.3258 50.5718 92.7941 50.3953 93.4965 50.2189L95.272 49.7681V50.905C95.272 51.2382 95.1354 51.5126 94.8427 51.7674C94.3745 52.1987 93.8086 52.4143 93.1062 52.4143Z" fill="white"/>
<path d="M104.228 45.2598C103.389 45.2598 102.725 45.6126 102.257 46.3182V45.4558H100.696V53.7472H102.335V49.4545C102.335 48.4156 102.589 47.6903 103.096 47.3179C103.369 47.1219 103.896 47.0043 104.657 47.0043H104.852V45.3578L104.696 45.3382C104.52 45.2794 104.364 45.2598 104.228 45.2598Z" fill="white"/>
<path d="M107.584 54.688C107.584 55.1193 107.506 55.2957 107.427 55.3545C107.349 55.4329 107.174 55.5113 106.745 55.5113H106.257V56.9226L106.393 56.9618C106.53 57.001 106.667 57.0206 106.842 57.0206C108.793 57.0206 109.203 56.0209 109.203 55.1781V45.4362H107.564V54.688H107.584Z" fill="white"/>
<path d="M114.373 45.4362H112.754V53.7276H114.373V45.4362Z" fill="white"/>
<path d="M123.68 49.7484C123.309 49.376 122.724 49.1016 121.885 48.9056L120.675 48.6312C119.817 48.4351 119.368 48.1215 119.368 47.7099C119.368 47.4355 119.485 47.2199 119.739 47.063C120.012 46.8866 120.383 46.7886 120.87 46.7886C122.061 46.7886 122.236 47.3571 122.256 47.7883L122.275 47.9647H124.031V47.7687C124.031 47.063 123.778 46.475 123.27 46.0046C122.704 45.4949 121.904 45.2401 120.909 45.2401C119.953 45.2401 119.173 45.4557 118.588 45.9066C118.002 46.3574 117.69 46.9846 117.69 47.7687C117.69 48.4547 117.924 49.0036 118.373 49.376C118.763 49.6896 119.407 49.964 120.344 50.1797L121.514 50.4541C122.568 50.7089 122.568 51.1793 122.568 51.3362C122.568 51.6106 122.431 51.8262 122.158 52.0026C121.865 52.1986 121.436 52.2966 120.929 52.2966C120.246 52.2966 119.758 52.1594 119.524 51.8654C119.407 51.7282 119.31 51.493 119.231 51.1597L119.192 51.0029H117.417V51.1989C117.456 51.9438 117.729 52.5514 118.236 53.0023C118.822 53.5511 119.7 53.8255 120.831 53.8255C121.865 53.8255 122.685 53.5903 123.309 53.1395C123.934 52.6691 124.265 52.0222 124.265 51.1989C124.246 50.6501 124.051 50.1209 123.68 49.7484Z" fill="white"/>
</svg>
