<svg width="164" height="88" viewBox="0 0 164 88" fill="none" xmlns="http://www.w3.org/2000/svg">
<rect width="164" height="74" rx="4" fill="black"/>
<path d="M45.999 27.2897V29.7334H41.8287V27.2767C41.8287 25.5256 41.3075 23.9052 40.4082 22.5462L43.3926 19.5537C45.0346 21.7099 45.999 24.3887 45.999 27.2897Z" fill="#C4E3E3"/>
<path d="M24.6915 29.7334V39.8739L21.4466 41.5727L20.5213 42.0562V29.7334H24.6915Z" fill="#8B4291"/>
<path d="M33.2536 29.7335H24.6785V27.2767C24.6785 25.5388 25.1998 23.9053 26.099 22.5463L33.2536 29.7335Z" fill="#C4E3E3"/>
<path d="M33.2536 14.5096V18.6913C30.2693 18.6913 27.6238 20.2333 26.099 22.5593L23.1147 19.5668C25.4344 16.4959 29.1225 14.5096 33.2536 14.5096Z" fill="#1DB09A"/>
<path d="M33.2536 29.7334V35.3525L41.8287 39.8739V38.3319V29.7334H33.2536Z" fill="#1DB09A"/>
<path d="M40.4082 22.5593L33.2536 29.7334V18.6913C36.2379 18.6913 38.8834 20.2333 40.4082 22.5593Z" fill="#8B4291"/>
<path d="M44.0963 19.6191L43.8226 19.2532L43.4577 18.7697L43.4447 18.7828C43.184 18.4691 42.9234 18.1686 42.6367 17.8942C40.1345 15.3852 36.7983 14 33.2536 14C29.2658 14 25.5908 15.738 23.0625 18.7958V18.7566L22.6976 19.2401L22.424 19.606C20.834 21.8536 20 24.4933 20 27.2767V29.2107V30.2692V41.7426V42.9317V54H46.5202V42.9317V41.7426V30.2692V29.2107V27.2898C46.5202 24.5064 45.6862 21.8667 44.0963 19.6191ZM32.7323 15.0585V18.1686V18.1816C32.7193 18.1816 32.7193 18.1816 32.7063 18.1816C32.6541 18.1816 32.602 18.1947 32.5499 18.1947C32.4195 18.2078 32.2892 18.2208 32.1719 18.2339C32.1068 18.247 32.0416 18.247 31.9765 18.26C31.8722 18.2731 31.7549 18.2862 31.6507 18.3123C31.5855 18.3254 31.5073 18.3384 31.4421 18.3515C31.3379 18.3777 31.2336 18.3907 31.1294 18.4169C31.0642 18.4299 30.986 18.4561 30.9209 18.4691C30.8166 18.4953 30.7124 18.5214 30.6081 18.5606C30.5429 18.5867 30.4778 18.5998 30.4126 18.6259C30.3084 18.6651 30.2041 18.7043 30.0868 18.7435C30.0347 18.7697 29.9695 18.7827 29.9174 18.8089C29.7871 18.8612 29.6437 18.9265 29.5134 18.9788C29.4873 18.9918 29.4613 19.0049 29.4352 19.018C29.2788 19.0964 29.1224 19.1748 28.9661 19.2532C28.9139 19.2793 28.8748 19.3055 28.8227 19.3316C28.7184 19.3969 28.6142 19.4492 28.5099 19.5145C28.4578 19.5537 28.3926 19.5799 28.3405 19.6191C28.2493 19.6844 28.1581 19.7367 28.0668 19.802C28.0147 19.8412 27.9496 19.8804 27.8974 19.9196C27.8062 19.985 27.728 20.0503 27.6368 20.1156C27.5847 20.1548 27.5325 20.2071 27.4674 20.2463C27.3892 20.3117 27.298 20.3901 27.2198 20.4554C27.1676 20.4946 27.1155 20.5469 27.0634 20.5861C26.9722 20.6645 26.894 20.756 26.8027 20.8344C26.7636 20.8736 26.7245 20.9128 26.6854 20.952C26.5682 21.0696 26.4509 21.2003 26.3336 21.3309L26.3205 21.344C26.2163 21.4747 26.112 21.6054 26.0078 21.736L23.7923 19.5145C26.0338 16.8095 29.2397 15.2022 32.7323 15.0585ZM31.9765 30.2692H32.7323V31.014V35.0389L25.2128 38.9984V30.2692H31.9765ZM25.2128 29.2107V27.2898C25.2128 27.1068 25.2259 26.9239 25.2389 26.7409C25.2389 26.6756 25.2519 26.6233 25.2519 26.558C25.2649 26.4273 25.278 26.3097 25.291 26.1921C25.304 26.1268 25.3171 26.0483 25.3171 25.983C25.3301 25.8654 25.3562 25.7609 25.3822 25.6433C25.3953 25.5779 25.4083 25.4995 25.4344 25.4342C25.4604 25.3296 25.4865 25.212 25.5256 25.1075C25.5386 25.0421 25.5647 24.9768 25.5908 24.8984C25.6299 24.7808 25.6689 24.6632 25.708 24.5586C25.7341 24.5064 25.7471 24.441 25.7732 24.3888C25.8253 24.245 25.8905 24.1013 25.9557 23.9575C25.9687 23.9314 25.9817 23.9053 25.9817 23.8791C26.0599 23.7223 26.1381 23.5655 26.2163 23.4218L32.0025 29.2238H25.2128V29.2107ZM26.7897 22.507C26.8027 22.494 26.8027 22.4809 26.8158 22.4678C26.8549 22.4155 26.8809 22.3763 26.92 22.3371C26.9852 22.2587 27.0503 22.1803 27.1155 22.1019C27.1546 22.0497 27.1937 22.0105 27.2458 21.9582C27.311 21.8928 27.3761 21.8144 27.4413 21.7491C27.4804 21.6968 27.5325 21.6576 27.5716 21.6054C27.6368 21.54 27.7019 21.4747 27.7671 21.4093C27.8192 21.3701 27.8583 21.3179 27.9105 21.2787C27.9756 21.2133 28.0538 21.148 28.132 21.0957C28.1841 21.0565 28.2232 21.0173 28.2754 20.9781C28.3535 20.9128 28.4448 20.8474 28.523 20.7952C28.5621 20.769 28.6012 20.7298 28.6533 20.7037C28.7706 20.6253 28.8879 20.5469 29.0051 20.4685C29.0182 20.4554 29.0312 20.4554 29.0443 20.4423C29.1746 20.3639 29.3049 20.2855 29.4482 20.2071C29.4873 20.181 29.5264 20.1679 29.5786 20.1418C29.6698 20.0895 29.774 20.0372 29.8653 19.998C29.9174 19.9719 29.9695 19.9458 30.0217 19.9327C30.1129 19.8935 30.2041 19.8543 30.2953 19.8151C30.3475 19.789 30.4126 19.7759 30.4647 19.7498C30.556 19.7236 30.6472 19.6844 30.7254 19.6583C30.7905 19.6321 30.8427 19.6191 30.9078 19.606C30.9991 19.5799 31.0903 19.5537 31.1815 19.5276C31.2467 19.5145 31.2988 19.5015 31.364 19.4753C31.4552 19.4492 31.5594 19.4361 31.6507 19.41C31.7028 19.3969 31.768 19.3839 31.8201 19.3708C31.9374 19.3447 32.0416 19.3316 32.1589 19.3185C32.198 19.3185 32.2371 19.3055 32.2892 19.3055C32.4456 19.2924 32.602 19.2663 32.7454 19.2663V28.492L26.7897 22.507ZM21.0426 27.2898C21.0426 24.7939 21.7724 22.4155 23.1668 20.377L25.4213 22.6377C25.3953 22.6769 25.3822 22.7161 25.3562 22.7422C25.304 22.8206 25.2649 22.8991 25.2259 22.9905C25.1737 23.0951 25.1086 23.1996 25.0564 23.3172C25.0173 23.3956 24.9782 23.4871 24.9392 23.5655C24.887 23.67 24.8479 23.7876 24.7958 23.8922C24.7567 23.9837 24.7306 24.0621 24.6915 24.1535C24.6524 24.2711 24.6133 24.3888 24.5742 24.4933C24.5482 24.5848 24.5221 24.6632 24.4961 24.7547C24.457 24.8723 24.4309 24.9899 24.4048 25.1075C24.3788 25.199 24.3657 25.2774 24.3397 25.3688C24.3136 25.4995 24.2875 25.6171 24.2745 25.7478C24.2615 25.8262 24.2485 25.9177 24.2354 25.9961C24.2094 26.1398 24.1963 26.2836 24.1833 26.4273C24.1833 26.4926 24.1703 26.5711 24.1572 26.6364C24.1442 26.8455 24.1312 27.0676 24.1312 27.2767V29.2107H21.0165V27.2898H21.0426ZM21.0426 30.2692H24.1572V39.5472L23.7011 39.7824L21.0426 41.1807V30.2692ZM32.7323 52.9415H21.0426V42.3829L25.2128 40.1875L32.198 36.5155L32.7323 36.2411V52.9415ZM33.7879 18.1686V15.0585C36.8504 15.1892 39.7175 16.4436 41.8939 18.639C42.1806 18.9265 42.4412 19.214 42.7018 19.5276L40.4994 21.736L40.4864 21.7491C40.3821 21.6184 40.2779 21.4877 40.1736 21.3571C40.1606 21.344 40.1606 21.344 40.1476 21.3309C40.0433 21.2003 39.926 21.0827 39.8087 20.965C39.7696 20.9258 39.7305 20.8866 39.6914 20.8474C39.6132 20.769 39.522 20.6776 39.4308 20.5992C39.3787 20.5469 39.3265 20.5077 39.2744 20.4685C39.1962 20.3901 39.105 20.3247 39.0268 20.2594C38.9747 20.2202 38.9226 20.1679 38.8574 20.1287C38.7662 20.0634 38.688 19.998 38.5967 19.9327C38.5446 19.8935 38.4795 19.8543 38.4273 19.8151C38.3361 19.7498 38.2449 19.6975 38.1537 19.6321C38.1015 19.5929 38.0494 19.5668 37.9842 19.5276C37.88 19.4623 37.7757 19.3969 37.6584 19.3447C37.6193 19.3185 37.5672 19.2924 37.5281 19.2663C37.3717 19.1878 37.2154 19.1094 37.059 19.031C37.0329 19.018 37.0068 19.0049 36.9938 19.0049C36.8635 18.9396 36.7201 18.8873 36.5898 18.835C36.5377 18.8089 36.4725 18.7958 36.4204 18.7697C36.3161 18.7305 36.1988 18.6913 36.0946 18.6521C36.0294 18.6259 35.9643 18.6129 35.8991 18.5867C35.7949 18.5606 35.6906 18.5214 35.5863 18.4953C35.5212 18.4822 35.443 18.4561 35.3778 18.443C35.2736 18.4169 35.1693 18.3907 35.0651 18.3777C34.9999 18.3646 34.9217 18.3515 34.8565 18.3384C34.7523 18.3123 34.635 18.2992 34.5307 18.2862C34.4656 18.2731 34.4004 18.2731 34.3353 18.26C34.2049 18.247 34.0746 18.2339 33.9443 18.2208C33.8922 18.2208 33.8531 18.2078 33.801 18.2078C33.7879 18.2078 33.7879 18.2078 33.7749 18.2078V18.1686H33.7879ZM41.0859 25.4342C41.0989 25.4995 41.1119 25.5779 41.138 25.6433C41.1641 25.7609 41.1771 25.8654 41.2032 25.983C41.2162 26.0483 41.2292 26.1268 41.2423 26.1921C41.2553 26.3097 41.2683 26.4404 41.2814 26.558C41.2814 26.6233 41.2944 26.6756 41.2944 26.7409C41.3074 26.9239 41.3204 27.1068 41.3204 27.2898V29.2107H34.5438L40.33 23.4087C40.4082 23.5655 40.4864 23.7092 40.5646 23.8661C40.5776 23.8922 40.5907 23.9183 40.5907 23.9314C40.6558 24.0751 40.721 24.2189 40.7731 24.3626C40.7992 24.4149 40.8122 24.4802 40.8383 24.5325C40.8774 24.6501 40.9165 24.7547 40.9556 24.8723C40.9816 24.9376 40.9946 25.0029 41.0077 25.0683C41.0207 25.212 41.0598 25.3166 41.0859 25.4342ZM33.7879 19.2401C33.9443 19.2532 34.1007 19.2663 34.244 19.2793C34.2831 19.2793 34.3222 19.2924 34.3613 19.2924C34.4786 19.3055 34.5959 19.3316 34.7132 19.3447C34.7653 19.3577 34.8175 19.3708 34.8826 19.3839C34.9869 19.41 35.0781 19.4231 35.1823 19.4492C35.2475 19.4623 35.2996 19.4753 35.3648 19.5015C35.456 19.5276 35.5472 19.5537 35.6385 19.5799C35.7036 19.5929 35.7558 19.6191 35.8209 19.6321C35.9121 19.6583 36.0034 19.6975 36.0946 19.7236C36.1467 19.7498 36.2119 19.7628 36.264 19.789C36.3552 19.8282 36.4465 19.8674 36.5377 19.9066C36.5898 19.9327 36.6419 19.9588 36.6941 19.9719C36.7983 20.0242 36.8895 20.0634 36.9808 20.1156C37.0199 20.1418 37.059 20.1548 37.0981 20.181C37.2284 20.2594 37.3717 20.3378 37.5021 20.4162C37.5151 20.4293 37.5281 20.4293 37.5411 20.4423C37.6584 20.5207 37.7757 20.5992 37.893 20.6776C37.9321 20.7037 37.9712 20.7429 38.0233 20.769C38.1015 20.8344 38.1928 20.8866 38.2709 20.952C38.3231 20.9912 38.3622 21.0304 38.4143 21.0696C38.4925 21.1349 38.5576 21.1872 38.6358 21.2525C38.688 21.2917 38.7271 21.344 38.7792 21.3832C38.8444 21.4485 38.9095 21.5139 38.9747 21.5792C39.0268 21.6315 39.0659 21.6707 39.105 21.723C39.1702 21.7883 39.2353 21.8667 39.3005 21.932C39.3396 21.9843 39.3787 22.0235 39.4308 22.0758C39.496 22.1542 39.5611 22.2326 39.6263 22.311C39.6654 22.3502 39.6914 22.4025 39.7305 22.4417C39.7436 22.4548 39.7436 22.4678 39.7566 22.4809L33.814 28.4397V19.2401H33.7879ZM33.7879 30.2692H41.3074V38.9984L33.7879 35.0389V30.2692ZM45.4646 52.9415H33.7879V36.228L41.3074 40.1875L42.2066 40.6579L42.363 40.7364L45.4777 42.3698V52.9415H45.4646ZM45.4646 41.1807L44.1354 40.4881L42.35 39.5472V30.2692H45.4646V41.1807ZM45.4646 29.2107H42.35V27.2898C42.35 27.0807 42.337 26.8585 42.3239 26.6495C42.3239 26.5841 42.3109 26.5057 42.2978 26.4404C42.2848 26.2966 42.2718 26.1529 42.2457 26.0091C42.2327 25.9307 42.2197 25.8393 42.2066 25.7609C42.1806 25.6302 42.1675 25.5126 42.1415 25.3819C42.1284 25.2904 42.1024 25.212 42.0763 25.1205C42.0502 25.0029 42.0111 24.8853 41.9851 24.7677C41.959 24.6762 41.933 24.5978 41.9069 24.5064C41.8678 24.3888 41.8287 24.2712 41.7896 24.1666C41.7635 24.0751 41.7244 23.9967 41.6853 23.9053C41.6463 23.7876 41.5941 23.6831 41.542 23.5786C41.5029 23.4871 41.4638 23.4087 41.4247 23.3303C41.3726 23.2257 41.3204 23.1212 41.2553 23.0036C41.2162 22.9252 41.1641 22.8337 41.125 22.7553C41.0989 22.7161 41.0859 22.6769 41.0598 22.6508L41.0728 22.6377L42.1806 21.527L43.3144 20.3901C44.7088 22.4286 45.4386 24.8069 45.4386 27.3028V29.2107H45.4646Z" fill="white"/>
<path d="M55.0042 30.2039H58.2231V38.2405H59.7218V30.2039H62.9537V29.3022H55.0042V30.2039Z" fill="white"/>
<path d="M64.0744 29.3022V29.5897C65.1561 29.5897 65.1822 30.4783 65.1952 30.5306V38.2405H66.6939V29.3022H64.0744Z" fill="white"/>
<path d="M70.3298 29.3022H67.7104V29.5897C68.8312 29.5897 68.8312 30.5306 68.8312 30.5306V38.2405H74.8259V37.4956H70.3298V29.3022Z" fill="white"/>
<path d="M75.7903 38.2405H76.6374L78.0318 35.4179H81.4462L82.8146 38.2405H84.6651L80.0909 29.1062L75.7903 38.2405ZM78.3055 34.673L79.7911 31.4322L81.1856 34.673H78.3055Z" fill="white"/>
<path d="M87.3888 37.4956V29.3022H84.8215V29.5897C85.5513 29.5897 85.7989 29.9818 85.8901 30.2692V38.2405H91.8848V37.4956H87.3888Z" fill="white"/>
<path d="M117.623 29.3022H119.487L122.628 35.8361H122.706L126.107 29.3022H127.606V38.2405H126.107V30.9096H126.055L122.25 38.2405L118.392 30.9749H118.288V38.2405H117.623V29.3022Z" fill="white"/>
<path d="M97.7753 33.9543V38.2405H96.2766V29.3022H97.7753V33.2095H102.245V29.3022H103.744V38.2405H102.245V33.9543H97.7753Z" fill="white"/>
<path d="M110.69 38.4496C109.999 38.4496 109.361 38.332 108.761 38.0837C108.162 37.8354 107.641 37.4956 107.197 37.0644C106.754 36.6332 106.403 36.1366 106.155 35.5616C105.907 34.9866 105.777 34.3725 105.777 33.7191C105.777 33.2878 105.829 32.8827 105.946 32.4907C106.064 32.0987 106.22 31.7328 106.429 31.38C106.637 31.0402 106.898 30.7266 107.197 30.4522C107.497 30.1778 107.823 29.9295 108.188 29.7335C108.553 29.5374 108.944 29.3806 109.374 29.263C109.804 29.1585 110.234 29.0931 110.69 29.0931C111.146 29.0931 111.589 29.1454 112.019 29.263C112.436 29.3676 112.84 29.5244 113.205 29.7335C113.57 29.9295 113.896 30.1778 114.196 30.4522C114.495 30.7266 114.743 31.0402 114.965 31.38C115.173 31.7197 115.343 32.0856 115.46 32.4907C115.577 32.8827 115.629 33.3009 115.629 33.7191C115.629 34.1503 115.577 34.5685 115.46 34.9736C115.343 35.3787 115.186 35.7446 114.965 36.0974C114.756 36.4502 114.495 36.7638 114.196 37.0513C113.896 37.3388 113.57 37.5871 113.205 37.7962C112.84 38.0053 112.449 38.1621 112.019 38.2797C111.589 38.3842 111.146 38.4496 110.69 38.4496ZM110.69 38.0053C111.198 38.0053 111.654 37.9007 112.045 37.6916C112.436 37.4826 112.762 37.182 113.036 36.803C113.31 36.4241 113.505 35.9667 113.648 35.444C113.779 34.9213 113.857 34.3463 113.857 33.7321C113.857 33.118 113.792 32.5561 113.648 32.0464C113.518 31.5368 113.31 31.0925 113.036 30.7266C112.762 30.3607 112.436 30.0732 112.045 29.8641C111.654 29.655 111.198 29.5636 110.69 29.5636C110.169 29.5636 109.713 29.6681 109.322 29.8641C108.931 30.0732 108.605 30.3607 108.331 30.7266C108.071 31.0925 107.862 31.5368 107.732 32.0464C107.601 32.5561 107.536 33.118 107.536 33.7321C107.536 34.3463 107.601 34.9213 107.732 35.444C107.862 35.9667 108.071 36.411 108.331 36.803C108.592 37.182 108.931 37.4826 109.322 37.6916C109.713 37.8877 110.169 38.0053 110.69 38.0053Z" fill="white"/>
<path d="M136.233 29.3022V30.034H131.528V33.2356H134.682V33.9805H131.528V37.4956H136.233V38.2405H130.03V29.3022H136.233Z" fill="white"/>
<path d="M140.911 37.8746C141.133 37.8746 141.354 37.8484 141.563 37.7831C141.785 37.7178 141.967 37.6263 142.136 37.5087C142.306 37.3911 142.449 37.2473 142.54 37.0644C142.645 36.8945 142.697 36.6854 142.697 36.4633C142.697 36.1889 142.632 35.9406 142.488 35.7315C142.345 35.5224 142.162 35.3264 141.928 35.1435C141.693 34.9605 141.433 34.8037 141.146 34.6469C140.846 34.4901 140.56 34.3333 140.247 34.1764C139.947 34.0196 139.647 33.8498 139.348 33.6799C139.048 33.51 138.787 33.314 138.566 33.1049C138.331 32.8958 138.149 32.6475 138.005 32.3862C137.862 32.1248 137.797 31.8243 137.797 31.4845C137.797 31.1448 137.862 30.8311 137.992 30.5306C138.123 30.2431 138.305 29.9817 138.553 29.7727C138.8 29.5636 139.1 29.3937 139.465 29.2761C139.83 29.1585 140.234 29.0931 140.703 29.0931C141.12 29.0931 141.498 29.1323 141.837 29.2238C142.162 29.3153 142.462 29.446 142.71 29.6158C142.957 29.7857 143.179 30.0079 143.348 30.2692C143.518 30.5306 143.661 30.8181 143.778 31.1578L143.01 31.5106C142.918 31.2362 142.801 30.9879 142.671 30.7527C142.527 30.5306 142.371 30.3346 142.176 30.1647C141.98 30.0079 141.758 29.8772 141.511 29.7857C141.263 29.6942 140.977 29.655 140.651 29.655C140.364 29.655 140.116 29.6942 139.908 29.7727C139.699 29.8511 139.517 29.9556 139.374 30.0863C139.23 30.217 139.126 30.3607 139.061 30.5175C138.996 30.6743 138.957 30.8442 138.957 31.001C138.957 31.2362 139.022 31.4453 139.165 31.6413C139.308 31.8373 139.504 32.0203 139.739 32.1902C139.973 32.36 140.247 32.5299 140.547 32.6867C140.846 32.8435 141.159 33.0134 141.472 33.1833C141.785 33.3532 142.097 33.5231 142.397 33.706C142.697 33.889 142.97 34.085 143.205 34.2941C143.44 34.5031 143.635 34.7384 143.778 34.9997C143.922 35.248 144 35.5355 144 35.8491C144 36.2019 143.935 36.5417 143.805 36.8553C143.674 37.1689 143.466 37.4434 143.205 37.6655C142.931 37.9007 142.606 38.0837 142.202 38.2143C141.798 38.345 141.341 38.4104 140.807 38.4104C140.377 38.4104 139.999 38.3581 139.66 38.2666C139.321 38.1751 139.022 38.0314 138.774 37.8615C138.514 37.6786 138.292 37.4564 138.11 37.2081C137.927 36.9468 137.771 36.6593 137.653 36.3195L138.448 35.9928C138.54 36.2803 138.67 36.5417 138.826 36.7769C138.983 37.0121 139.165 37.1951 139.387 37.3649C139.595 37.5218 139.83 37.6524 140.09 37.7308C140.338 37.8354 140.612 37.8746 140.911 37.8746Z" fill="white"/>
<path d="M91.95 42.4613C91.8327 42.5919 91.7675 42.7357 91.7675 42.9055C91.7675 43.0754 91.8327 43.2322 91.95 43.3498C92.0673 43.4805 92.2237 43.5328 92.3931 43.5328C92.5755 43.5328 92.7189 43.4675 92.8492 43.3498C92.9665 43.2322 93.0317 43.0754 93.0317 42.9055C93.0317 42.7357 92.9665 42.5919 92.8492 42.4613C92.6016 42.226 92.1976 42.213 91.95 42.4613Z" fill="white"/>
<path d="M95.4296 42.4221C95.3123 42.5527 95.2471 42.6965 95.2471 42.8664C95.2471 43.0493 95.3123 43.193 95.4296 43.3237C95.5469 43.4544 95.7032 43.5067 95.8727 43.5067C96.0551 43.5067 96.1985 43.4413 96.3288 43.3237C96.4591 43.2061 96.5112 43.0493 96.5112 42.8664C96.5112 42.6965 96.4461 42.5397 96.3288 42.4221C96.0812 42.1738 95.6772 42.1738 95.4296 42.4221Z" fill="white"/>
<path d="M59.435 42.2261H58.223V49.8184H59.435V42.2261Z" fill="white"/>
<path d="M64.6087 44.1862C63.9571 44.1862 63.4228 44.4344 63.0058 44.9179V44.2907H61.9632V49.8183H63.0579V46.7997C63.0579 46.3031 63.1752 45.898 63.4228 45.5975C63.6574 45.31 63.9701 45.1662 64.3611 45.1662C64.6608 45.1662 64.8954 45.2446 65.0648 45.4015C65.2342 45.5583 65.3124 45.7804 65.3124 46.0548V49.8052H66.3941V45.7151C66.3941 45.2446 66.2247 44.8657 65.8989 44.5913C65.5861 44.3168 65.1561 44.1862 64.6087 44.1862Z" fill="white"/>
<path d="M76.8328 47.9105L73.2099 42.2261H71.9979V49.8184H73.1447V44.1862L76.6894 49.7661L76.7285 49.8184H77.9666V42.2261H76.8328V47.9105Z" fill="white"/>
<path d="M85.1733 48.8644C85.1603 48.8644 85.1342 48.8774 85.1082 48.8905C84.9648 48.9428 84.9388 48.9428 84.9388 48.9428C84.8345 48.9428 84.7302 48.9166 84.7302 48.6814V45.7412C84.7302 44.7089 84.0265 44.1731 82.6321 44.1731C81.785 44.1731 81.1595 44.3952 80.7815 44.8395C80.5469 45.1009 80.4297 45.4929 80.4036 45.9895V46.1202H81.5113L81.5243 46.0026C81.5765 45.4537 81.9153 45.2054 82.606 45.2054C83.6616 45.2054 83.6616 45.702 83.6616 45.8588L83.6486 46.1986L82.0326 46.5645C81.381 46.7082 80.964 46.865 80.7424 47.0218C80.3645 47.3093 80.169 47.7275 80.169 48.2633C80.169 48.7337 80.3254 49.1127 80.6121 49.4132C80.9509 49.753 81.4201 49.9229 82.0196 49.9229C82.7624 49.9229 83.3358 49.7138 83.7398 49.3087C83.8701 49.7007 84.1959 49.8967 84.7042 49.8967C84.8475 49.8967 85.043 49.8575 85.2906 49.766L85.3818 49.7399V48.7598L85.1733 48.8644ZM82.189 48.9428C81.368 48.9428 81.2767 48.5507 81.2767 48.2633C81.2767 48.0803 81.3419 47.9366 81.4983 47.832C81.6677 47.7144 81.9805 47.5968 82.4496 47.4792L83.6355 47.1786V47.9366C83.6355 48.1587 83.5443 48.3417 83.3488 48.5115C83.0361 48.799 82.6581 48.9428 82.189 48.9428Z" fill="white"/>
<path d="M89.6173 44.1731C89.0569 44.1731 88.6138 44.4083 88.3011 44.8788V44.3038H87.2585V49.8314H88.3532V46.9696C88.3532 46.277 88.5226 45.7935 88.8614 45.5452C89.0439 45.4145 89.3958 45.3361 89.904 45.3361H90.0343V44.2384L89.9301 44.2254C89.8128 44.1862 89.7085 44.1731 89.6173 44.1731Z" fill="white"/>
<path d="M91.8588 50.4587C91.8588 50.7462 91.8067 50.8638 91.7546 50.903C91.7024 50.9553 91.5851 51.0075 91.2984 51.0075H90.9726V51.9484L91.0639 51.9745C91.1551 52.0007 91.2463 52.0137 91.3636 52.0137C92.6668 52.0137 92.9405 51.3473 92.9405 50.7854V44.2908H91.8458V50.4587H91.8588Z" fill="white"/>
<path d="M96.3939 44.2908H95.3123V49.8184H96.3939V44.2908Z" fill="white"/>
<path d="M102.61 47.1656C102.363 46.9173 101.972 46.7343 101.411 46.6037L100.603 46.4207C100.03 46.2901 99.7301 46.081 99.7301 45.8066C99.7301 45.6236 99.8083 45.4799 99.9777 45.3753C100.16 45.2577 100.408 45.1924 100.734 45.1924C101.529 45.1924 101.646 45.5713 101.659 45.8588L101.672 45.9764H102.845V45.8458C102.845 45.3753 102.675 44.9833 102.337 44.6697C101.959 44.3299 101.424 44.16 100.76 44.16C100.121 44.16 99.5998 44.3038 99.2089 44.6043C98.8179 44.9049 98.6094 45.323 98.6094 45.8458C98.6094 46.3031 98.7658 46.669 99.0655 46.9173C99.3261 47.1264 99.7562 47.3093 100.382 47.4531L101.164 47.636C101.867 47.8059 101.867 48.1195 101.867 48.2241C101.867 48.407 101.776 48.5508 101.594 48.6684C101.398 48.799 101.112 48.8644 100.773 48.8644C100.317 48.8644 99.9908 48.7729 99.8344 48.5769C99.7562 48.4854 99.691 48.3286 99.6389 48.1065L99.6128 48.0019H98.4269V48.1326C98.453 48.6292 98.6354 49.0343 98.9743 49.3348C99.3652 49.7007 99.9517 49.8837 100.708 49.8837C101.398 49.8837 101.946 49.7268 102.363 49.4263C102.78 49.1127 103.001 48.6814 103.001 48.1326C102.988 47.7667 102.858 47.4139 102.61 47.1656Z" fill="white"/>
<path d="M82 88L95.5 74H68.5L82 88Z" fill="black"/>
</svg>
